<?xml version="1.0" encoding="UTF-8"?>
<svg id="_圖層_1" data-name="圖層 1" xmlns="http://www.w3.org/2000/svg" version="1.1" viewBox="0 0 60 60">
  <g>
    <path d="M16.8,38.6l-1.5-3.2c-.1-.2-.4-.4-.6-.3l-3.5.7,2.7-5.3c1.1.8,5.1,2.2,5.9,2.6l-2.8,5.6Z" fill="#ff7c24" stroke-width="0"/>
    <g>
      <g>
        <path d="M30.4,11.5c-.1-.1-.2-.2-.4-.3-2.2-2.1-5.2-3.3-8.5-3.3-6.9,0-12.5,5.6-12.5,12.5s1.3,6.3,3.3,8.5c.1.1.2.2.3.4,2.3,2.3,5.4,3.7,8.8,3.7,6.9,0,12.5-5.6,12.5-12.5s-1.4-6.6-3.7-8.8Z" fill="#fff" stroke-width="0"/>
        <path d="M35.3,20.8c-.8-.7-.9-1.9-.2-2.7l.2-.3-.3-.2c-.9-.5-1.3-1.6-.8-2.6l.2-.3h-.4c-1-.4-1.6-1.4-1.4-2.4v-.4c0,0-.3,0-.3,0-1,0-1.9-.9-1.9-1.9v-.4s0,0,0,0c-1.2.3-2.5-.5-2.8-1.7h0s0,0,0,0c-1.1.6-2.5.1-3.1-1h0s0,0,0,0c-1,.8-2.4.7-3.2-.2-.6,1-2,1.2-2.8.4h0s0,0,0,0c-.4,1.1-1.7,1.5-2.7,1h0s0,0,0,0c-.2,1.1-1.3,1.9-2.4,1.6,0,1.1-.9,2.1-2,2h0c.3,1.1-.4,2.2-1.6,2.4h0s0,0,0,0c.5,1,0,2.3-1,2.7h0s0,0,0,0c.7.9.5,2.2-.4,2.8h0s.3.3.3.3c.8.7.9,1.9.2,2.7l-.2.3.3.2c.9.5,1.3,1.6.8,2.6l-.2.3h.4c1,.4,1.6,1.4,1.4,2.4v.4c0,0,.3,0,.3,0,1,0,1.9.9,1.9,1.9v.4s.4,0,.4,0c1-.2,2,.4,2.3,1.4v.4c0,0,.4-.2.4-.2.9-.5,2.1,0,2.6.8l.2.3.3-.2c.8-.7,2-.6,2.7.2l.3.3h0c.6-1,2-1.2,2.8-.4h0s0,0,0,0c.4-1.1,1.7-1.5,2.7-1h0s0,0,0,0c.2-1.1,1.3-1.9,2.4-1.6h0c0-1.1.9-2.1,2-2h0c-.3-1.1.4-2.2,1.6-2.4h0s0,0,0,0c-.5-1,0-2.3,1-2.7h0s0,0,0,0c-.7-.9-.5-2.2.4-2.8h0s-.3-.3-.3-.3ZM21.9,32.4c-6.7,0-12.1-5.4-12.1-12.1s5.4-12.1,12.1-12.1,12.1,5.4,12.1,12.1-5.4,12.1-12.1,12.1Z" fill="#14597d" stroke-width="0"/>
      </g>
      <g>
        <path d="M15.9,24c-.5,0-.9,0-1.3-.2-.4-.1-.8-.4-1.1-.6-.3-.3-.6-.6-.7-1-.2-.4-.3-.8-.3-1.3s0-.9.3-1.3c.2-.4.4-.7.7-1,.3-.3.7-.5,1.1-.6s.8-.2,1.3-.2.4,0,.7,0c.2,0,.5,0,.7.2s.5.2.7.3l-.5,1c-.2-.1-.4-.2-.7-.3-.2,0-.5-.1-.8-.1s-.6,0-.9.1c-.3,0-.5.2-.7.4-.2.2-.3.4-.4.6,0,.3-.1.5-.1.8,0,.4,0,.8.3,1.1.2.3.4.5.8.7.3.2.7.2,1.1.2s.3,0,.5,0c.2,0,.3,0,.4-.1v-1.2h-1.3v-1h2.4v3c-.2.1-.4.2-.6.3-.2,0-.5.1-.8.2s-.5,0-.7,0Z" fill="#14597d" stroke-width="0"/>
        <path d="M19,23.9v-6.1h1.2l2.4,3.9h-.5s2.3-3.9,2.3-3.9h1.2v6.1h-1.3v-4.4s.3,0,.3,0l-1.9,3.2h-.9l-1.9-3.2h.2c0,0,0,4.4,0,4.4h-1.2Z" fill="#14597d" stroke-width="0"/>
        <path d="M26.7,23.9v-6.1h2.4c.4,0,.8,0,1.2.2s.6.4.8.7c.2.3.3.7.3,1.1s0,.8-.3,1.1c-.2.3-.4.5-.8.7-.3.2-.8.2-1.3.2h-1v2.2h-1.3ZM27.9,20.6h1c.3,0,.6,0,.8-.2.2-.1.3-.4.3-.7s0-.5-.3-.7c-.2-.1-.4-.2-.8-.2h-1v1.7Z" fill="#14597d" stroke-width="0"/>
      </g>
    </g>
  </g>
  <g>
    <g>
      <path d="M32.8,53.3l-1.5-3.2c-.1-.2-.4-.4-.6-.3l-3.5.7,2.6-5.2c1.1.8,5,2.2,5.8,2.5l-2.8,5.5Z" fill="none" stroke="#ff7c24" stroke-miterlimit="10" stroke-width=".5"/>
      <path d="M45.1,49.8c-.3,0-.5,0-.6.3l-1.5,3.2-2.8-5.5c.8-.3,4.7-1.8,5.8-2.5l2.6,5.2-3.5-.7Z" fill="none" stroke="#ff7c24" stroke-miterlimit="10" stroke-width=".5"/>
    </g>
    <g>
      <path d="M51,36.2c-.8-.7-.9-1.9-.2-2.7l.2-.3-.3-.2c-.9-.5-1.3-1.6-.8-2.6l.2-.3h-.4c-1-.4-1.6-1.4-1.4-2.4v-.4c0,0-.3,0-.3,0-1,0-1.9-.9-1.9-1.9v-.4s0,0,0,0c-1.2.3-2.5-.5-2.8-1.7h0s0,0,0,0c-1.1.6-2.5.1-3.1-1h0s0,0,0,0c-1,.8-2.4.7-3.2-.2-.6,1-2,1.2-2.8.4h0s0,0,0,0c-.4,1.1-1.7,1.5-2.7,1h0s0,0,0,0c-.2,1.1-1.3,1.9-2.4,1.6,0,1.1-.9,2.1-2,2h0c.3,1.1-.4,2.2-1.6,2.4h0s0,0,0,0c.5,1,0,2.3-1,2.7h0s0,0,0,0c.7.9.5,2.2-.4,2.8h0s.3.3.3.3c.8.7.9,1.9.2,2.7l-.2.3.3.2c.9.5,1.3,1.6.8,2.6l-.2.3h.4c1,.4,1.6,1.4,1.4,2.4v.4c0,0,.3,0,.3,0,1,0,1.9.9,1.9,1.9v.4s.4,0,.4,0c1-.2,2,.4,2.3,1.4v.4c0,0,.4-.2.4-.2.9-.5,2.1,0,2.6.8l.2.3.3-.2c.8-.7,2-.6,2.7.2l.3.3h0c.6-1,2-1.2,2.8-.4h0s0,0,0,0c.4-1.1,1.7-1.5,2.7-1h0s0,0,0,0c.2-1.1,1.3-1.9,2.4-1.6h0c0-1.1.9-2.1,2-2h0c-.3-1.1.4-2.2,1.6-2.4h0s0,0,0,0c-.5-1,0-2.3,1-2.7h0s0,0,0,0c-.7-.9-.5-2.2.4-2.8h0s-.3-.3-.3-.3Z" fill="#14597d" stroke-width="0"/>
      <g>
        <path d="M30.8,39.8v-6.1h1.3v6.1h-1.3Z" fill="#fff" stroke-width="0"/>
        <path d="M35.7,39.9c-.5,0-.9,0-1.3-.2-.4-.1-.8-.3-1.1-.6l.6-1c.1.1.3.2.5.3.2,0,.4.2.6.2.2,0,.4,0,.7,0,.3,0,.6,0,.8-.2.2-.1.3-.3.3-.5s0-.3-.2-.5-.4-.2-.8-.3l-.6-.2c-.6-.2-1.1-.4-1.3-.7s-.4-.7-.4-1.1,0-.5.2-.7c.1-.2.3-.4.5-.6.2-.2.4-.3.7-.4.3,0,.6-.1.9-.1s.9,0,1.2.2.7.3.9.5l-.6.9c-.1-.1-.3-.2-.4-.3-.2,0-.3-.2-.5-.2-.2,0-.4,0-.6,0s-.4,0-.6,0c-.2,0-.3.1-.4.2,0,.1-.1.2-.1.4s0,.2,0,.3.2.2.3.2c.2,0,.4.1.6.2l.6.2c.6.2,1,.4,1.3.7.3.3.4.6.4,1.1s0,.7-.3,1c-.2.3-.5.5-.8.7-.4.2-.8.2-1.3.2Z" fill="#fff" stroke-width="0"/>
        <path d="M42,39.9c-.5,0-.9,0-1.3-.2s-.7-.4-1-.7c-.3-.3-.5-.6-.7-1-.2-.4-.2-.8-.2-1.3s0-.9.2-1.3c.2-.4.4-.7.7-1,.3-.3.6-.5,1-.7s.8-.2,1.3-.2.9,0,1.3.2c.4.2.7.4,1,.7.3.3.5.6.7,1,.2.4.2.8.2,1.2s0,.9-.2,1.3c-.2.4-.4.7-.7,1-.3.3-.6.5-1,.7-.4.2-.8.2-1.3.2ZM42,38.7c.3,0,.5,0,.8-.1s.4-.2.6-.4c.2-.2.3-.4.4-.6s.1-.5.1-.8,0-.7-.2-1c-.2-.3-.4-.5-.7-.7-.3-.2-.6-.2-1-.2s-.5,0-.7.1c-.2,0-.4.2-.6.4-.2.2-.3.4-.4.6,0,.2-.1.5-.1.8s0,.7.2,1,.4.5.7.7c.3.2.6.2,1,.2Z" fill="#fff" stroke-width="0"/>
      </g>
    </g>
  </g>
  <path d="M22.7,13.4s0,0,0,0l-.5-1.1-.2-.5s0,0,0,0l-.2.5-.5,1.1s0,0,0,0l-1-1.4s-.1,0,0,0l.8,3.2s0,0,0,0h2.2s0,0,0,0l.8-3.2c0,0,0,0,0,0l-1,1.4Z" fill="#ff7c24" stroke-width="0"/>
  <path d="M38.9,29s0,0,0,0l-.5-1.1-.2-.5s0,0,0,0l-.2.5-.5,1.1s0,0,0,0l-1-1.4s-.1,0,0,0l.8,3.2s0,0,0,0h2.2s0,0,0,0l.8-3.2c0,0,0,0,0,0l-1,1.4Z" fill="#ff7c24" stroke-width="0"/>
  <circle cx="21.9" cy="20.4" r="11.4" fill="none" stroke="#14597d" stroke-miterlimit="10" stroke-width=".3"/>
  <circle cx="37.6" cy="35.9" r="11.4" fill="none" stroke="#fff" stroke-miterlimit="10" stroke-width=".3"/>
</svg>