<?xml version="1.0" encoding="UTF-8"?>
<svg id="_圖層_1" data-name="圖層 1" xmlns="http://www.w3.org/2000/svg" version="1.1" viewBox="0 0 60 60">
  <defs>
    <style>
      .cls-1 {
        stroke-width: .75px;
      }

      .cls-1, .cls-2 {
        fill: none;
        stroke: #14597d;
        stroke-miterlimit: 10;
      }

      .cls-2 {
        stroke-width: .25px;
      }

      .cls-3 {
        fill: #14597d;
      }

      .cls-3, .cls-4 {
        stroke-width: 0px;
      }

      .cls-4 {
        fill: #ff7c24;
      }
    </style>
  </defs>
  <g>
    <path class="cls-3" d="M30,13.26c-5.72,0-10.37,4.65-10.37,10.37,0,3.15,1.42,5.98,3.64,7.88.17-.09.37-.19.62-.29-.82-.66-1.53-1.45-2.11-2.34h3.55c.25.64.56,1.23.91,1.76.14-.01.29-.03.44-.03.1,0,.2-.01.3-.02-.37-.52-.69-1.09-.96-1.71h3.66v1.84s.07.02.11.03c.14.04.31.08.51.13v-2h3.71c-.42.98-.96,1.82-1.63,2.53.2.12.36.27.46.43.77-.82,1.39-1.82,1.85-2.97h3.51c-1.21,1.89-3.05,3.33-5.22,4.03-.17.5-.65.84-1.22.84-.39,0-.75-.07-1.1-.15-.33-.07-.65-.13-.99-.13-.02,0-.03,0-.05,0,.24.11.51.22.79.3.23.07.42.13.59.17,5.25-.51,9.36-4.94,9.36-10.32,0-5.72-4.65-10.37-10.37-10.37ZM28.75,13.97c-1.63.92-2.81,2.38-3.53,4.36h-3.39c1.53-2.34,4.03-3.99,6.92-4.36ZM21.45,18.95h3.56c-.38,1.28-.58,2.74-.6,4.39h-4.16c.05-1.59.47-3.08,1.2-4.39ZM21.42,28.26c-.7-1.29-1.11-2.75-1.16-4.31h4.16c.03,1.58.27,3.03.7,4.31h-3.69ZM29.69,28.26h-3.9c-.45-1.26-.7-2.71-.73-4.31h4.64v4.31ZM29.69,23.34h-4.64c.02-1.66.23-3.13.63-4.39h4.01v4.39ZM29.69,18.33h-3.79c.77-1.96,2.04-3.35,3.79-4.12v4.12ZM39.74,23.34h-4.11c-.02-1.64-.22-3.11-.6-4.39h3.52c.72,1.31,1.15,2.8,1.2,4.39ZM38.17,18.33h-3.35c-.71-1.97-1.89-3.43-3.52-4.35,2.87.39,5.35,2.03,6.86,4.35ZM30.31,14.18c1.77.76,3.06,2.16,3.84,4.14h-3.84v-4.14ZM30.31,18.95h4.05c.4,1.26.61,2.73.63,4.39h-4.69v-4.39ZM34.26,28.26h-3.95v-4.31h4.68c-.04,1.6-.29,3.04-.73,4.31ZM38.58,28.26h-3.65c.42-1.28.66-2.72.7-4.31h4.12c-.05,1.55-.46,3.02-1.16,4.31Z"/>
    <path class="cls-3" d="M19.68,32.18v2.98h3.04c.56,0,1.12.11,1.64.32l2.77,1.17s1.1.47,2.07.41c1.49-.08,2.81-.31,3.35-.38.44-.05.86-.24,1.2-.53l2.32-1.66s.58-1.16-.66-1.08c-1.18.08-2.15.89-2.9,1.08-.75.19-1.16.08-2.24-.25-.73-.23-2.32-.9-1.41-1.16,1.16-.33,1.97.17,2.9.17s1.21-1.35-.11-1.59c-3.15-.58-1.8-.73-4.94-.56-2.24.12-3.6,1.08-3.6,1.08h-3.44Z"/>
  </g>
  <circle class="cls-1" cx="30" cy="30" r="23"/>
  <circle class="cls-2" cx="30.1" cy="30.05" r="21.75"/>
  <g>
    <path class="cls-4" d="M18.01,45.14c-.57,0-1.07-.12-1.51-.35s-.77-.57-1.01-1c-.24-.43-.36-.93-.36-1.52,0-.42.07-.81.21-1.16s.34-.66.6-.92.57-.46.92-.6.74-.21,1.16-.21c.45,0,.83.06,1.14.17.31.11.59.27.84.48l-.59.96c-.16-.16-.35-.28-.57-.35-.22-.08-.46-.12-.73-.12s-.52.04-.74.12-.4.2-.55.35c-.15.15-.27.34-.35.55s-.12.45-.12.72c0,.37.07.68.21.94.14.26.35.46.61.6.27.14.59.21.96.21.25,0,.51-.04.75-.12.25-.08.48-.21.71-.38l.54.98c-.26.2-.56.36-.91.47-.35.12-.75.18-1.21.18Z"/>
    <path class="cls-4" d="M20.98,45.03v-5.52h2.19c.4,0,.75.07,1.05.2s.53.32.69.57c.16.25.24.55.24.9,0,.27-.05.51-.16.72s-.26.38-.44.51-.4.24-.65.3l1.54,2.32h-1.39l-1.33-2.09h-.57v2.09h-1.17ZM22.14,41.99h.87c.3,0,.53-.06.7-.18s.25-.31.25-.56-.08-.45-.24-.58c-.16-.13-.38-.19-.68-.19h-.91v1.51Z"/>
    <path class="cls-4" d="M26.33,45.03v-5.52h1.84c.56,0,1.06.12,1.49.35.43.23.76.56,1,.97.24.42.36.9.36,1.44,0,.41-.07.78-.21,1.12-.14.34-.33.63-.59.87-.25.24-.55.43-.9.57-.35.13-.74.2-1.16.2h-1.84ZM27.5,43.94h.59c.26,0,.49-.04.7-.11.21-.07.39-.18.54-.33.15-.14.27-.32.35-.53s.12-.44.12-.71c0-.36-.07-.66-.21-.91-.14-.25-.34-.44-.6-.57-.26-.13-.56-.2-.9-.2h-.59v3.34Z"/>
    <path class="cls-4" d="M32.03,45.03v-5.52h1.12l2.15,3.54h-.46s2.05-3.54,2.05-3.54h1.12v5.52h-1.13l.02-4.01.21.08-1.69,2.85h-.8l-1.74-2.85.2-.08.02,4.01h-1.07Z"/>
    <path class="cls-4" d="M41.94,45.14c-.42,0-.81-.07-1.17-.22-.36-.15-.67-.35-.93-.61-.26-.26-.47-.56-.61-.91s-.22-.73-.22-1.13.07-.79.22-1.14.35-.65.61-.91c.26-.26.58-.46.93-.61.36-.14.75-.22,1.17-.22s.81.07,1.16.22c.36.15.67.35.93.62.26.26.47.57.62.92.15.35.22.72.22,1.13s-.07.79-.22,1.13c-.15.35-.35.65-.62.91-.26.26-.57.46-.93.61-.36.15-.74.22-1.16.22ZM41.94,44.05c.24,0,.47-.04.68-.13.21-.08.39-.2.54-.36.16-.16.28-.34.36-.56.09-.22.13-.46.13-.73,0-.36-.07-.67-.22-.94-.15-.27-.35-.47-.61-.62-.26-.15-.55-.22-.88-.22-.24,0-.47.04-.68.13-.21.08-.39.21-.54.36-.15.16-.27.34-.36.56s-.13.46-.13.73c0,.36.07.67.22.94.15.27.35.47.61.62.26.15.55.22.87.22Z"/>
  </g>
</svg>