<?xml version="1.0" encoding="UTF-8"?>
<svg id="_圖層_1" data-name="圖層 1" xmlns="http://www.w3.org/2000/svg" version="1.1" viewBox="0 0 60 60">
  <path d="M35.7,36.3c-1.4,0-2.6-.5-3.6-1.3v2c1.1.6,2.3.9,3.6.9,2.1,0,4-.9,5.4-2.3-.4-.4-.7-.9-1-1.4-1,1.3-2.6,2.1-4.4,2.1h0Z" fill="#00abc7" stroke-width="0"/>
  <path d="M41.4,17.9c0-.5-.4-.8-.8-.8s-.8.4-.8.8v6c.6.3,1.2.8,1.7,1.3v-7.3h0Z" fill="#00abc7" stroke-width="0"/>
  <path d="M47.1,23.3c-2.1,0-4,.9-5.3,2.3.4.4.7.9.9,1.4,1-1.3,2.6-2.1,4.4-2.1,3.1,0,5.7,2.6,5.7,5.7s-2.6,5.7-5.7,5.7-2.8-.6-3.8-1.5c-1-.9-2-2.5-2.1-4.2,0-1.1-.7-2.3-1.4-3.2v3.2c0,4.1,3.3,7.4,7.4,7.4s7.4-3.3,7.4-7.4-3.3-7.4-7.4-7.4h0Z" fill="#00abc7" stroke-width="0"/>
  <path d="M39.6,26.5s0,0,0,0c0,0,0,0,0,0h0s0,0,0,0c0,0,0,0,0,0,.2.2.3.4.5.6,0,0,0,0,.1.1,0,0,0,0,0,0,.6.9,1.1,2.1,1.2,3.1,0,.9.4,1.9.9,2.6.3-.8.5-1.7.5-2.6,0-4.1-3.3-7.4-7.4-7.4s-4.4,1.1-5.7,2.7h0s0,0,0,0c0,0,0,0,0,0v-8.1c0-.5-.4-.8-.8-.8s-.8.4-.8.8v12.8c0,.9.2,1.8.5,2.6.5-.8.8-1.7.9-2.5.1-1.4.8-2.7,1.6-3.6,1-1.3,2.6-2.1,4.4-2.1s2.9.6,3.9,1.6h0Z" fill="#00abc7" stroke-width="0"/>
  <path d="M24.3,24.9c1.4,0,2.6.5,3.6,1.3v-2c-1.1-.6-2.3-.9-3.6-.9-2.1,0-4.1.9-5.4,2.4.4.4.7.9,1,1.4,1-1.3,2.7-2.2,4.5-2.2h0Z" fill="#34657f" stroke-width="0"/>
  <path d="M12.9,36.3c-3.1,0-5.7-2.6-5.7-5.7s2.6-5.7,5.7-5.7,3.3.8,4.3,2c.5.6,1.5,1.9,1.6,3.7,0,1.2.7,2.4,1.4,3.3v-3.2h0c0-4.1-3.3-7.4-7.4-7.4s-7.4,3.3-7.4,7.4,3.3,7.4,7.4,7.4,4-.9,5.4-2.3c-.4-.4-.7-.9-1-1.4-1,1.3-2.6,2.1-4.4,2.1h0Z" fill="#34657f" stroke-width="0"/>
  <path d="M30.2,30.7c0,1-.5,2.1-1.2,3-.2.2-.3.5-.5.7h0c-.7.8-1.6,1.3-2.5,1.6h0c-.5.2-1.1.3-1.7.3-1.5,0-2.9-.6-4-1.6-.9-.9-1.9-2.5-2-4.1,0-1.1-.5-2-.9-2.6-.3.8-.5,1.7-.5,2.6h0c0,4.1,3.3,7.4,7.4,7.4s1.5-.1,2.2-.3c0,0,0,0,0,0,1.4-.4,2.6-1.3,3.5-2.4,0,0,0,0,0,0v2.3c0,.5.4.8.8.8s.8-.4.8-.8v-6.9h0c0-.9-.2-1.8-.5-2.6-.5.8-.9,1.7-1,2.7h0Z" fill="#34657f" stroke-width="0"/>
  <path d="M20.2,37.3c0,0-.1,0-.2-.1-.5-.3-1-.7-1.4-1.1h0s0,0,0,0v1.6c0,.5.4.8.8.8s.8-.4.8-.8v-.3s0,0,0,0Z" fill="#34657f" stroke-width="0"/>
  <path d="M53.4,36.4c.5,0,.8.4.8.8s-.4.8-.8.8-.8-.4-.8-.8.4-.8.8-.8ZM53.4,37.9c.4,0,.6-.3.6-.7s-.3-.7-.6-.7-.6.3-.6.7.3.7.6.7ZM53.3,37.3h0v.3h-.2v-.9h.3c.2,0,.3.1.3.3s0,.2-.2.3l.2.4h-.2l-.2-.3h0ZM53.4,37.2c0,0,.1,0,.1-.1s0-.1-.1-.1h-.1v.3h.1Z" fill="#34657f" stroke-width="0"/>
</svg>