<?xml version="1.0" encoding="UTF-8"?>
<svg id="_圖層_1" data-name="圖層 1" xmlns="http://www.w3.org/2000/svg" version="1.1" viewBox="0 0 60 60">
  <defs>
    <style>
      .cls-1 {
        stroke: #14597d;
        stroke-width: .75px;
      }

      .cls-1, .cls-2 {
        fill: none;
        stroke-miterlimit: 10;
      }

      .cls-2 {
        stroke: #ff7c24;
        stroke-width: .25px;
      }

      .cls-3 {
        fill: #14597d;
      }

      .cls-3, .cls-4 {
        stroke-width: 0px;
      }

      .cls-4 {
        fill: #ff7c24;
      }
    </style>
  </defs>
  <circle class="cls-1" cx="30.1" cy="30.05" r="23"/>
  <g>
    <path class="cls-4" d="M24.12,32.98c0,2-.92,3-2.77,3h-6.11c-1.85,0-2.78-1-2.78-3v-5.48c0-1.05.22-1.82.67-2.3.46-.47,1.19-.7,2.2-.7h8.66v2.75h-8.12v5.94h4.91v-1.53h-1.52v-2.39h4.86v3.72Z"/>
    <path class="cls-4" d="M35.93,27.25h-3.67v8.73h-3.59v-8.73h-3.83v-2.75h11.09v2.75Z"/>
    <path class="cls-4" d="M47.91,30.01c0,1.39-.75,2.08-2.23,2.08h-5.48v3.89h-3.39v-11.48h8.78c.81,0,1.41.17,1.78.52.36.34.55.91.55,1.7v3.3ZM44.46,29.83v-2.58h-4.31v2.58h4.31Z"/>
  </g>
  <circle class="cls-2" cx="30.1" cy="30.05" r="21.75"/>
  <g>
    <g>
      <polygon class="cls-3" points="30 12.75 30.55 13.99 31.89 14.12 30.88 15.02 31.17 16.34 30 15.66 28.83 16.34 29.12 15.02 28.11 14.12 29.46 13.99 30 12.75"/>
      <polygon class="cls-3" points="24.31 14.26 24.85 15.49 26.2 15.63 25.19 16.53 25.48 17.85 24.31 17.17 23.14 17.85 23.43 16.53 22.42 15.63 23.76 15.49 24.31 14.26"/>
      <polygon class="cls-3" points="35.69 14.26 36.24 15.49 37.58 15.63 36.58 16.53 36.86 17.85 35.69 17.17 34.53 17.85 34.81 16.53 33.81 15.63 35.15 15.49 35.69 14.26"/>
    </g>
    <g>
      <polygon class="cls-3" points="30 47.25 29.46 46.02 28.11 45.88 29.12 44.98 28.83 43.66 30 44.34 31.17 43.66 30.88 44.98 31.89 45.88 30.55 46.02 30 47.25"/>
      <polygon class="cls-3" points="35.69 45.74 35.15 44.51 33.81 44.37 34.81 43.47 34.53 42.15 35.69 42.83 36.86 42.15 36.58 43.47 37.58 44.37 36.24 44.51 35.69 45.74"/>
      <polygon class="cls-3" points="24.31 45.74 23.76 44.51 22.42 44.37 23.43 43.47 23.14 42.15 24.31 42.83 25.48 42.15 25.19 43.47 26.2 44.37 24.85 44.51 24.31 45.74"/>
    </g>
  </g>
</svg>