<?xml version="1.0" encoding="UTF-8"?>
<svg id="_圖層_1" data-name="圖層 1" xmlns="http://www.w3.org/2000/svg" version="1.1" viewBox="0 0 60 60">
  <g>
    <path d="M41.7,34.3c-.2,0-.3-.1-.4-.3-.4-3.3-1.7-8.6-2.9-9.8-1.3-1.2-2.9-1.8-4-2.2-.5-.2-.9-.3-1.1-.5-.3-.3-.5-.7-.4-1.1,0-.3.3-.8,1.1-1.1.8-.3.9-1,.9-1,0,0,0,0,0,0,0-.2-.1-.4-.3-.6-.1-.2-.2-.4-.3-.5-.2-.5.4-.9,1.1-1.3.2-.1.5-.3.6-.4,0,0,.1-.1.1-.2,0-.3-.2-.6-.5-.9-.5-.5-.9-1-.9-1,0,0,0-.2,0-.3,0-.1.4-3.7-2.9-4.2-1.8-.3-3.5.2-4.7,1.2-1,.8-1.5,1.9-1.5,3.1,0,2.1,1.3,3.7,1.9,4.5.2.2.3.3.3.4.3.4.5,1.2.3,1.9-.2.5-.5.9-1.1,1.2-.2,0-.5.2-.8.3-1.8.7-5.6,2.2-6.3,5.3-.8,3.8-1.3,6.8-1.3,6.8,0,.2-.2.3-.4.3-.2,0-.3-.2-.3-.4,0,0,.5-3,1.3-6.8.8-3.5,4.8-5.1,6.7-5.8.3-.1.6-.2.8-.3.3-.2.6-.4.7-.7.1-.5,0-1-.2-1.3,0,0-.2-.2-.3-.3-.7-.8-2.1-2.6-2.1-5,0-1.4.7-2.7,1.8-3.7,1.4-1.2,3.3-1.7,5.3-1.4,3.6.5,3.6,4,3.6,4.8.1.2.4.5.8.8.4.3.8.9.7,1.5,0,.3-.1.6-.4.8-.2.2-.4.3-.7.4-.2.1-.6.3-.7.5,0,0,.1.2.2.3.2.3.5.8.4,1.2,0,.2-.3,1.1-1.4,1.6-.4.1-.6.3-.7.6,0,.1,0,.3.2.4.1,0,.5.2.9.4,1,.4,2.8,1.1,4.2,2.4,1.5,1.4,2.8,6.9,3.2,10.3,0,.2-.1.4-.3.4,0,0,0,0,0,0Z" fill="#14597d" stroke-width="0"/>
    <path d="M37.2,17.3c-.1,0-.2,0-.2-.2,0-.1,0-.2.2-.3l2.9-.6c.1,0,.2,0,.3.2,0,.1,0,.2-.2.3l-2.9.6s0,0,0,0Z" fill="#14597d" stroke-width="0"/>
    <path d="M39.8,20.2s0,0-.1,0l-2.6-1.3c-.1,0-.2-.2,0-.3,0-.1.2-.2.3,0l2.6,1.3c.1,0,.2.2,0,.3,0,0-.1.1-.2.1Z" fill="#14597d" stroke-width="0"/>
    <path d="M39.1,18.2s0,0,0,0l-2.1-.2c-.1,0-.2-.1-.2-.2,0-.1.1-.2.2-.2l2.1.2c.1,0,.2.1.2.2,0,.1-.1.2-.2.2Z" fill="#14597d" stroke-width="0"/>
    <path d="M31.9,28.4c-.3-.3-.7-.6-1-.9v-4.4c0-.7-1.1-.7-1.1,0v4.4c-.3.3-.7.6-1,.9-.4.3.2.9.6.5.2-.2.5-.4.7-.6.2.1.5.1.7,0,.2.2.5.4.7.6.4.3.9-.2.6-.5Z" fill="#14597d" stroke-width="0"/>
    <path d="M30.9,27.5c.3.3.7.6,1,1,.4.3-.2.9-.6.5-.3-.3-.7-.6-1-.9,0,0,0-.2.2-.3.2-.2.4-.2.4-.2Z" fill="#14597d" stroke-width="0"/>
    <g>
      <path d="M29,26.1c0-1.1-.3-1.3-.5-1.6-.2-.2-1.2-.5-1.8.2-.3.3-.6.7-.8,1.1s-.9,1-1.3,1.6c-.5.7-.3,1-.4,1.4s-.3.6-.5,1.2c-.2.7,0,1.6,0,2,0,.3,0,.7,0,1.2s0,1.5.6,1.8c.7.3,1.5-.1,2.1-.4.6-.3,2-.2,2.5-.4.5-.2.3-1,.3-1.7s.2-1.3.3-2.1c0-.8,0-1.7-.2-2,0-.2-.2-1.3-.2-2.4ZM26.2,29c0-.2.1-.3.3-.3s.3.1.3.3-.1.3-.3.3-.3-.1-.3-.3ZM26.6,32.7c-.2,0-.3-.1-.3-.3s.1-.3.3-.3.3.1.3.3-.1.3-.3.3ZM27.1,27c-.2,0-.4-.2-.4-.4s.2-.4.4-.4.4.2.4.4-.2.4-.4.4ZM27.7,30.6c-.2,0-.3-.1-.3-.3s.1-.3.3-.3.3.1.3.3-.1.3-.3.3ZM27.9,28c-.2,0-.4-.2-.4-.4s.2-.4.4-.4.4.2.4.4-.2.4-.4.4Z" fill="#14597d" stroke-width="0"/>
      <path d="M37,32.1c0-.3.3-1.3,0-2-.2-.7-.4-.8-.5-1.2,0-.4,0-.8-.4-1.4s-1.1-1.2-1.3-1.6-.5-.8-.8-1.1c-.6-.6-1.6-.4-1.8-.2-.2.2-.5.4-.5,1.6s-.1,2.1-.2,2.4c0,.2-.3,1.1-.2,2,0,.8.3,1.3.3,2.1s-.2,1.6.3,1.7c.5.2,1.9,0,2.5.4.6.3,1.4.7,2.1.4.7-.3.6-1.3.6-1.8s-.2-.9,0-1.2ZM33.2,30.5c-.2,0-.3-.1-.3-.3s.1-.3.3-.3.3.1.3.3-.1.3-.3.3ZM33.1,27.9c-.2,0-.4-.2-.4-.4s.2-.4.4-.4.4.2.4.4-.2.4-.4.4ZM33.5,26.6c0-.2.2-.4.4-.4s.4.2.4.4-.2.4-.4.4-.4-.2-.4-.4ZM34.4,32.6c-.2,0-.3-.1-.3-.3s.1-.3.3-.3.3.1.3.3-.1.3-.3.3ZM34.5,29.2c-.2,0-.3-.1-.3-.3s.1-.3.3-.3.3.1.3.3-.1.3-.3.3Z" fill="#14597d" stroke-width="0"/>
    </g>
  </g>
  <g>
    <path d="M10.8,48.6l3.7-9.8h2.4l3.8,9.8h-2.3l-.8-2.1h-3.7l-.7,2.1h-2.3ZM14.3,44.7h2.7l-1.4-3.7-1.4,3.7Z" fill="#ff7c24" stroke-width="0"/>
    <path d="M21.9,48.6v-9.8h3.9c.7,0,1.3.1,1.9.4s.9.6,1.2,1c.3.4.4,1,.4,1.6s0,.9-.3,1.3-.5.7-.8.9c-.3.2-.7.4-1.2.5l2.7,4.1h-2.5l-2.4-3.7h-1v3.7h-2.1ZM24,43.2h1.5c.5,0,.9-.1,1.2-.3s.5-.5.5-1-.1-.8-.4-1-.7-.3-1.2-.3h-1.6v2.7Z" fill="#ff7c24" stroke-width="0"/>
    <path d="M31.5,48.6v-9.8h3.3c1,0,1.9.2,2.6.6.8.4,1.4,1,1.8,1.7s.6,1.6.6,2.6-.1,1.4-.4,2-.6,1.1-1,1.5c-.4.4-1,.8-1.6,1-.6.2-1.3.4-2.1.4h-3.3ZM33.5,46.7h1c.5,0,.9,0,1.2-.2.4-.1.7-.3,1-.6s.5-.6.6-.9.2-.8.2-1.3-.1-1.2-.4-1.6c-.3-.4-.6-.8-1.1-1-.5-.2-1-.3-1.6-.3h-1v5.9Z" fill="#ff7c24" stroke-width="0"/>
    <path d="M44.9,48.8c-.7,0-1.4-.1-2.1-.3-.7-.2-1.3-.5-1.7-.9l1-1.6c.2.2.5.4.8.6.3.2.7.3,1,.4.4,0,.7.1,1.1.1.5,0,1,0,1.3-.3.3-.2.5-.5.5-.8s-.1-.5-.3-.7c-.2-.2-.7-.4-1.3-.6l-.9-.3c-1-.3-1.7-.6-2.1-1.1s-.7-1-.7-1.7,0-.8.3-1.2c.2-.4.4-.7.8-.9s.7-.5,1.2-.6c.5-.1.9-.2,1.5-.2s1.4.1,2,.3c.6.2,1.1.5,1.5.9l-1,1.5c-.2-.2-.4-.3-.7-.5s-.5-.2-.9-.3-.6-.1-.9-.1-.6,0-.9.1c-.3,0-.5.2-.6.4-.1.2-.2.4-.2.6s0,.3.2.5.3.2.5.4c.2.1.6.2,1,.4l.9.3c1,.3,1.7.6,2.1,1.1.4.4.7,1,.7,1.7s-.2,1.1-.5,1.6c-.3.5-.7.8-1.3,1.1-.6.3-1.2.4-2,.4Z" fill="#ff7c24" stroke-width="0"/>
  </g>
</svg>