<?xml version="1.0" encoding="UTF-8"?>
<svg id="_圖層_1" data-name="圖層 1" xmlns="http://www.w3.org/2000/svg" version="1.1" viewBox="0 0 60 60">
  <defs>
    <style>
      .cls-1 {
        fill: #00abc7;
      }

      .cls-1, .cls-2 {
        stroke-width: 0px;
      }

      .cls-2 {
        fill: #34657f;
      }
    </style>
  </defs>
  <path class="cls-1" d="M35.57,36.14c-1.33,0-2.55-.47-3.51-1.25v1.96c1.04.58,2.24.92,3.51.92,2.08,0,3.95-.88,5.26-2.29-.36-.43-.68-.89-.93-1.39-1.02,1.26-2.58,2.07-4.33,2.07h0Z"/>
  <path class="cls-1" d="M41.14,18.11c0-.45-.36-.81-.81-.81s-.81.36-.81.81v5.86c.6.34,1.15.76,1.62,1.25v-7.11h0Z"/>
  <path class="cls-1" d="M46.71,23.36c-2.05,0-3.91.87-5.22,2.25.36.43.67.9.92,1.4,1.02-1.24,2.57-2.03,4.3-2.03,3.07,0,5.58,2.5,5.58,5.58s-2.5,5.58-5.58,5.58c-1.44,0-2.76-.55-3.75-1.45-.96-.84-1.96-2.48-2.09-4.1-.08-1.04-.64-2.27-1.36-3.16v3.14c0,3.97,3.23,7.2,7.2,7.2s7.2-3.23,7.2-7.2-3.23-7.2-7.2-7.2h0Z"/>
  <path class="cls-1" d="M39.41,26.53s0,0,.01.01c.03.03.06.06.09.09h0s.05.05.08.08c.01.01.02.03.04.04.16.17.32.37.47.57.03.05.07.09.1.14.02.02.03.05.05.07.62.91,1.07,2.03,1.15,3.01.07.9.44,1.81.91,2.55.3-.79.46-1.64.46-2.53,0-3.97-3.23-7.2-7.2-7.2-2.25,0-4.25,1.03-5.58,2.65h0s0,0,0,0c0,0,0,0,0,0v-7.89c0-.45-.36-.81-.81-.81s-.81.36-.81.81v12.45c0,.88.16,1.73.45,2.51.49-.78.83-1.67.89-2.47.1-1.32.77-2.64,1.53-3.54,1.02-1.26,2.58-2.07,4.33-2.07,1.49,0,2.84.59,3.84,1.54h0Z"/>
  <path class="cls-2" d="M24.43,24.99c1.33,0,2.55.47,3.51,1.25v-1.96c-1.04-.58-2.24-.92-3.51-.92-2.09,0-3.98.9-5.3,2.33.36.43.68.9.93,1.41,1.02-1.29,2.6-2.11,4.36-2.11h0Z"/>
  <path class="cls-2" d="M13.28,36.14c-3.07,0-5.58-2.5-5.58-5.58s2.5-5.58,5.58-5.58c1.69,0,3.21.76,4.23,1.95.53.59,1.46,1.86,1.6,3.6.09,1.17.69,2.36,1.37,3.18v-3.15h0c0-3.97-3.23-7.2-7.2-7.2s-7.2,3.23-7.2,7.2,3.23,7.2,7.2,7.2c2.07,0,3.94-.88,5.26-2.29-.36-.43-.67-.9-.93-1.4-1.02,1.26-2.58,2.07-4.33,2.07h0Z"/>
  <path class="cls-2" d="M30.24,30.64c-.08.98-.52,2.06-1.14,2.96-.16.24-.33.46-.52.68h0c-.67.75-1.53,1.3-2.49,1.6h0c-.53.17-1.09.25-1.67.25-1.5,0-2.86-.59-3.86-1.56-.92-.86-1.85-2.44-1.97-4-.08-1.06-.49-1.93-.9-2.55-.3.79-.46,1.64-.46,2.53h0c0,3.97,3.23,7.2,7.2,7.2.76,0,1.49-.12,2.18-.34,0,0,0,0,0,0,1.32-.42,2.5-1.22,3.38-2.3,0,0,0,0,0,0v2.22c0,.45.36.81.81.81s.81-.36.81-.81v-6.78h0c0-.9-.16-1.75-.46-2.54-.48.75-.86,1.68-.93,2.61h0Z"/>
  <path class="cls-2" d="M20.42,37.05c-.07-.04-.13-.08-.2-.12-.5-.31-.96-.69-1.37-1.11h0s0,0,0,0v1.52c0,.45.36.81.81.81s.81-.36.81-.81v-.27s-.04-.02-.05-.02Z"/>
  <path class="cls-2" d="M52.81,36.15c.45,0,.82.37.82.82s-.37.82-.82.82-.81-.37-.81-.82.36-.82.81-.82ZM52.81,37.62c.35,0,.63-.28.63-.65s-.28-.65-.63-.65-.63.28-.63.65.28.65.63.65ZM52.78,37.09h-.06v.32h-.19v-.89h.33c.17,0,.3.13.3.28,0,.12-.07.22-.18.26l.19.34h-.22l-.17-.32h0ZM52.82,36.93c.09,0,.14-.05.14-.12s-.05-.12-.14-.12h-.11v.25h.11Z"/>
</svg>