<?xml version="1.0" encoding="UTF-8"?>
<svg id="_圖層_1" data-name="圖層 1" xmlns="http://www.w3.org/2000/svg" version="1.1" viewBox="0 0 60 60">
  <defs>
    <style>
      .cls-1 {
        stroke-width: .75px;
      }

      .cls-1, .cls-2 {
        fill: none;
        stroke: #14597d;
        stroke-miterlimit: 10;
      }

      .cls-2 {
        stroke-width: .25px;
      }

      .cls-3 {
        fill: #14597d;
      }

      .cls-3, .cls-4 {
        stroke-width: 0px;
      }

      .cls-4 {
        fill: #ff7c24;
      }
    </style>
  </defs>
  <g>
    <path class="cls-3" d="M39.27,33.39c-.15,0-.27-.11-.29-.26-.32-2.64-1.3-6.79-2.32-7.73-1.02-.94-2.29-1.44-3.12-1.77-.42-.16-.69-.27-.85-.4-.26-.21-.38-.52-.33-.83.04-.23.2-.64.89-.89.64-.23.73-.76.74-.78,0-.01,0-.03,0-.04.04-.12-.1-.33-.22-.51-.1-.14-.19-.28-.23-.43-.13-.42.35-.7.84-.99.18-.1.36-.21.48-.31.05-.04.08-.09.08-.17,0-.2-.16-.51-.4-.73-.4-.37-.73-.79-.75-.81-.05-.06-.07-.14-.06-.22.02-.12.34-2.88-2.32-3.28-1.4-.21-2.75.13-3.7.94-.76.64-1.2,1.53-1.21,2.44-.02,1.69,1.02,2.93,1.51,3.53.12.15.21.25.26.34.21.33.35.93.2,1.46-.12.41-.41.73-.83.93-.16.08-.38.16-.66.27-1.43.55-4.41,1.69-4.93,4.15-.65,3.03-1.05,5.35-1.05,5.37-.03.16-.18.27-.34.24-.16-.03-.27-.18-.24-.34,0-.02.41-2.35,1.06-5.39.59-2.77,3.77-3.99,5.3-4.57.26-.1.48-.18.62-.25.27-.13.44-.31.52-.56.11-.38-.02-.8-.14-.99-.03-.05-.12-.16-.21-.27-.54-.65-1.68-2.01-1.65-3.91.01-1.07.53-2.12,1.42-2.88,1.08-.92,2.6-1.31,4.16-1.08,2.86.43,2.86,3.17,2.82,3.8.11.14.35.41.61.65.28.26.6.73.59,1.18,0,.24-.12.45-.31.6-.15.12-.35.24-.54.35-.18.11-.46.27-.56.37.03.06.09.14.13.22.17.26.4.6.29.98-.03.15-.22.9-1.11,1.22-.3.11-.49.27-.52.44-.02.1.03.2.12.28.08.07.39.19.69.31.82.32,2.2.86,3.3,1.88,1.17,1.08,2.19,5.47,2.5,8.09.02.16-.09.31-.26.33-.01,0-.02,0-.04,0Z"/>
    <path class="cls-3" d="M35.67,20.02c-.08,0-.15-.06-.17-.14-.02-.1.04-.19.13-.21l2.3-.51c.1-.02.19.04.21.13.02.1-.04.19-.13.21l-2.3.51s-.03,0-.04,0Z"/>
    <path class="cls-3" d="M37.72,22.32s-.05,0-.08-.02l-2.08-1.05c-.09-.04-.12-.15-.08-.24.04-.09.15-.12.24-.08l2.08,1.05c.09.04.12.15.08.24-.03.06-.09.1-.16.1Z"/>
    <path class="cls-3" d="M37.21,20.74s-.01,0-.02,0l-1.63-.14c-.1,0-.17-.09-.16-.19,0-.1.09-.17.19-.16l1.63.14c.1,0,.17.09.16.19,0,.09-.09.16-.18.16Z"/>
    <path class="cls-3" d="M31.56,28.79c-.27-.25-.54-.5-.8-.75v-3.49c0-.58-.91-.58-.91,0v3.49c-.27.25-.54.5-.8.75-.29.26.16.67.44.41.18-.17.36-.34.54-.5.16.11.39.11.54,0,.18.17.36.33.54.5.28.26.73-.14.44-.41Z"/>
    <path class="cls-3" d="M30.75,28.04c.27.25.54.5.81.75.29.26-.16.67-.44.41-.26-.24-.52-.48-.78-.73,0,0,0-.14.13-.27.14-.15.29-.16.29-.16Z"/>
    <g>
      <path class="cls-3" d="M29.26,26.95c0-.89-.21-1.06-.39-1.24-.18-.18-.91-.37-1.42.14-.26.26-.5.59-.66.89s-.68.75-1.06,1.28c-.38.53-.24.78-.32,1.13s-.27.44-.42.98c-.15.54-.01,1.28.06,1.55.08.27-.06.56-.06.95s-.06,1.19.45,1.4c.51.21,1.15-.09,1.62-.35.47-.26,1.57-.17,1.98-.3.41-.14.27-.75.27-1.36s.2-1,.27-1.66c.08-.66-.08-1.34-.15-1.54-.08-.2-.17-1-.17-1.89ZM27.01,29.24c0-.14.11-.25.25-.25s.25.11.25.25-.11.25-.25.25-.25-.11-.25-.25ZM27.34,32.19c-.14,0-.25-.11-.25-.25s.11-.25.25-.25.25.11.25.25-.11.25-.25.25ZM27.76,27.7c-.16,0-.29-.13-.29-.29s.13-.29.29-.29.29.13.29.29-.13.29-.29.29ZM28.25,30.48c-.14,0-.25-.11-.25-.25s.11-.25.25-.25.25.11.25.25-.11.25-.25.25ZM28.34,28.45c-.18,0-.33-.15-.33-.33s.15-.33.33-.33.33.15.33.33-.15.33-.33.33Z"/>
      <path class="cls-3" d="M35.56,31.69c.08-.27.22-1.01.06-1.55-.15-.54-.35-.63-.42-.98-.08-.35.06-.6-.32-1.13s-.89-.98-1.06-1.28-.4-.63-.66-.89c-.51-.51-1.24-.32-1.42-.14-.18.18-.39.35-.39,1.24s-.09,1.69-.17,1.89c-.08.2-.23.88-.15,1.54.08.66.27,1.06.27,1.66s-.14,1.22.27,1.36c.41.14,1.51.05,1.98.3.47.26,1.1.56,1.62.35.51-.21.45-1.01.45-1.4s-.14-.68-.06-.95ZM32.58,30.4c-.14,0-.25-.11-.25-.25s.11-.25.25-.25.25.11.25.25-.11.25-.25.25ZM32.5,28.36c-.18,0-.33-.15-.33-.33s.15-.33.33-.33.33.15.33.33-.15.33-.33.33ZM32.79,27.32c0-.16.13-.29.29-.29s.29.13.29.29-.13.29-.29.29-.29-.13-.29-.29ZM33.49,32.11c-.14,0-.25-.11-.25-.25s.11-.25.25-.25.25.11.25.25-.11.25-.25.25ZM33.58,29.4c-.14,0-.25-.11-.25-.25s.11-.25.25-.25.25.11.25.25-.11.25-.25.25Z"/>
    </g>
  </g>
  <g>
    <path class="cls-4" d="M13.98,43.89l3.12-8.25h1.99l3.17,8.25h-1.96l-.64-1.77h-3.14l-.62,1.77h-1.91ZM16.93,40.65h2.3l-1.17-3.09-1.14,3.09Z"/>
    <path class="cls-4" d="M23.34,43.89v-8.25h3.27c.6,0,1.12.1,1.57.3s.79.48,1.03.86c.24.37.36.82.36,1.34,0,.41-.08.77-.24,1.08s-.38.57-.66.77-.6.35-.97.45l2.31,3.47h-2.08l-1.99-3.13h-.85v3.13h-1.75ZM25.09,39.35h1.3c.45,0,.8-.09,1.05-.27.25-.18.38-.46.38-.83s-.12-.67-.35-.86c-.24-.19-.58-.29-1.02-.29h-1.36v2.26Z"/>
    <path class="cls-4" d="M31.35,43.89v-8.25h2.75c.84,0,1.58.17,2.23.53.64.35,1.14.83,1.5,1.46.36.62.54,1.34.54,2.15,0,.61-.1,1.17-.31,1.67-.21.5-.5.94-.88,1.31s-.83.65-1.35.85c-.52.2-1.1.3-1.73.3h-2.75ZM33.1,42.26h.88c.39,0,.73-.05,1.05-.16s.58-.27.81-.49c.23-.22.4-.48.52-.79s.18-.66.18-1.06c0-.54-.11-.99-.32-1.36-.21-.37-.51-.66-.9-.85-.39-.19-.83-.29-1.34-.29h-.88v5Z"/>
    <path class="cls-4" d="M42.69,44.07c-.61,0-1.2-.09-1.77-.27-.57-.18-1.06-.43-1.46-.77l.83-1.31c.18.18.4.34.67.47.26.13.55.23.85.3.3.07.6.1.89.1.45,0,.81-.08,1.09-.24s.42-.39.42-.69c0-.24-.1-.45-.29-.61s-.56-.32-1.1-.47l-.75-.21c-.83-.23-1.43-.55-1.79-.94-.37-.4-.55-.88-.55-1.44,0-.37.08-.7.23-1.01.15-.31.37-.58.65-.8.28-.22.6-.4.98-.52.38-.12.79-.19,1.23-.19.6,0,1.16.09,1.68.26.52.17.94.41,1.26.72l-.86,1.27c-.16-.15-.35-.29-.57-.4-.22-.12-.46-.21-.72-.27s-.52-.1-.78-.1c-.28,0-.53.04-.75.12-.21.08-.38.19-.5.33-.12.14-.18.32-.18.52,0,.15.04.28.13.39.08.11.23.21.43.3.2.09.48.19.83.29l.78.23c.82.24,1.41.54,1.78.91.37.37.55.85.55,1.44,0,.51-.13.96-.39,1.35-.26.39-.63.7-1.11.91s-1.05.33-1.71.33Z"/>
  </g>
  <circle class="cls-1" cx="30" cy="30" r="23"/>
  <circle class="cls-2" cx="30.1" cy="30.05" r="21.75"/>
</svg>