<?xml version="1.0" encoding="UTF-8"?>
<svg id="_圖層_1" data-name="圖層 1" xmlns="http://www.w3.org/2000/svg" version="1.1" viewBox="0 0 60 60">
  <defs>
    <style>
      .cls-1 {
        stroke: #ff7c24;
        stroke-width: .45px;
      }

      .cls-1, .cls-2, .cls-3 {
        fill: none;
        stroke-miterlimit: 10;
      }

      .cls-2 {
        stroke: #14597d;
      }

      .cls-2, .cls-3 {
        stroke-width: .25px;
      }

      .cls-4 {
        fill: #14597d;
      }

      .cls-4, .cls-5, .cls-6 {
        stroke-width: 0px;
      }

      .cls-5 {
        fill: #ff7c24;
      }

      .cls-3 {
        stroke: #fff;
      }

      .cls-6 {
        fill: #fff;
      }
    </style>
  </defs>
  <g>
    <path class="cls-5" d="M17.2,38.33l-1.51-3.15c-.11-.23-.36-.35-.61-.31l-3.43.66,2.62-5.17c1.07.77,4.93,2.18,5.69,2.52l-2.76,5.46Z"/>
    <g>
      <g>
        <g>
          <path class="cls-6" d="M22.11,8.48c-6.71,0-12.15,5.44-12.15,12.15,0,3.19,1.24,6.08,3.25,8.25L30.36,11.73c-2.17-2.01-5.06-3.25-8.25-3.25Z"/>
          <path class="cls-6" d="M30.7,12.04c-.11-.11-.23-.21-.34-.31L13.21,28.88c.1.11.2.23.31.34,2.2,2.2,5.24,3.56,8.59,3.56,6.71,0,12.15-5.44,12.15-12.15,0-3.35-1.36-6.39-3.56-8.59Z"/>
        </g>
        <path class="cls-4" d="M35.12,21.01c-.76-.68-.84-1.84-.19-2.62l.24-.28-.33-.18c-.9-.48-1.25-1.58-.8-2.5l.16-.33-.36-.09c-.99-.25-1.59-1.24-1.37-2.24l.08-.36h-.37c-1.02-.02-1.84-.84-1.86-1.86v-.37s0,0,0,0c-1.19.27-2.38-.46-2.69-1.65h0s0,0,0,0c-1.1.54-2.42.12-3-.96h0s0,0,0,0c-.94.79-2.33.69-3.15-.23-.62.93-1.9,1.13-2.77.42h0s0,0,0,0c-.4,1.04-1.62,1.5-2.61,1h0s0,0,0,0c-.18,1.1-1.27,1.81-2.35,1.53.06,1.12-.86,2.03-1.98,1.98h0c.29,1.08-.42,2.17-1.52,2.35h0s0,0,0,0c.5.99.04,2.21-1,2.61h0s0,0,0,0c.7.87.51,2.15-.42,2.76h0s.28.25.28.25c.76.68.84,1.84.19,2.62l-.24.28.33.18c.9.48,1.25,1.58.8,2.5l-.16.33.36.09c.99.25,1.59,1.24,1.37,2.24l-.08.36h.37c1.02.02,1.84.84,1.86,1.86v.37s.37-.08.37-.08c.99-.22,1.98.38,2.24,1.37l.09.36.33-.16c.91-.45,2.02-.1,2.5.8l.18.33.28-.24c.78-.65,1.94-.57,2.62.19l.25.28h0c.61-.93,1.9-1.13,2.76-.43h0s0,0,0,0c.4-1.04,1.62-1.5,2.61-1h0s0,0,0,0c.18-1.1,1.27-1.81,2.34-1.52h0c-.06-1.11.86-2.03,1.98-1.98h0c-.29-1.08.42-2.17,1.52-2.35h0s0,0,0,0c-.5-.99-.04-2.21,1-2.61h0s0,0,0,0c-.7-.87-.51-2.15.42-2.76h0s-.28-.25-.28-.25ZM22.09,32.36c-6.48,0-11.74-5.27-11.74-11.74s5.27-11.74,11.74-11.74,11.74,5.27,11.74,11.74-5.27,11.74-11.74,11.74Z"/>
      </g>
      <g>
        <path class="cls-4" d="M16.27,24.16c-.46,0-.9-.07-1.3-.21-.41-.14-.76-.35-1.07-.62-.3-.27-.54-.59-.72-.98s-.26-.81-.26-1.29.08-.9.25-1.28c.17-.38.4-.71.7-.98.3-.27.64-.48,1.04-.62s.82-.22,1.28-.22c.21,0,.43.02.65.05.23.03.46.09.69.17.23.08.45.2.67.34l-.53.98c-.21-.14-.43-.24-.67-.3-.24-.06-.49-.1-.75-.1-.32,0-.6.05-.85.14-.25.09-.47.22-.64.39s-.31.38-.4.62c-.09.24-.14.52-.14.82,0,.43.09.8.28,1.09.18.3.44.52.76.67.32.15.68.23,1.08.23.18,0,.34-.02.49-.05.15-.03.28-.07.38-.11v-1.18h-1.26v-1.01h2.37v2.95c-.17.1-.38.19-.62.27-.24.08-.49.13-.74.17-.25.04-.49.06-.7.06Z"/>
        <path class="cls-4" d="M19.26,24.03v-5.95h1.21l2.32,3.82h-.5s2.21-3.82,2.21-3.82h1.2v5.95h-1.22l.02-4.33.22.08-1.82,3.07h-.86l-1.87-3.07.21-.08.02,4.33h-1.15Z"/>
        <path class="cls-4" d="M26.74,24.03v-5.95h2.31c.44,0,.82.08,1.16.23.34.15.6.37.79.66.19.29.29.63.29,1.04s-.09.75-.27,1.04c-.18.29-.44.5-.78.65-.34.15-.75.23-1.23.23h-1.02v2.11h-1.26ZM27.99,20.86h1c.33,0,.58-.07.76-.2s.27-.34.27-.64-.09-.51-.28-.65c-.19-.14-.44-.21-.75-.21h-1.01v1.69Z"/>
      </g>
    </g>
  </g>
  <g>
    <g>
      <path class="cls-1" d="M32.73,52.65l-1.48-3.1c-.11-.22-.35-.35-.6-.3l-3.38.65,2.57-5.09c1.05.75,4.85,2.14,5.6,2.47l-2.72,5.37Z"/>
      <path class="cls-1" d="M44.65,49.25c-.24-.04-.49.08-.6.3l-1.48,3.1-2.72-5.37c.75-.33,4.55-1.72,5.6-2.47l2.57,5.09-3.38-.65Z"/>
    </g>
    <g>
      <g>
        <g>
          <path class="cls-4" d="M37.36,23.48c-6.71,0-12.15,5.44-12.15,12.15,0,3.19,1.24,6.08,3.25,8.25l17.15-17.15c-2.17-2.01-5.06-3.25-8.25-3.25Z"/>
          <path class="cls-4" d="M45.95,27.03c-.11-.11-.23-.21-.34-.31l-17.15,17.15c.1.11.2.23.31.34,2.2,2.2,5.24,3.56,8.59,3.56,6.71,0,12.15-5.44,12.15-12.15,0-3.35-1.36-6.39-3.56-8.59Z"/>
        </g>
        <path class="cls-4" d="M50.37,36c-.76-.68-.84-1.84-.19-2.62l.24-.28-.33-.18c-.9-.48-1.25-1.58-.8-2.5l.16-.33-.36-.09c-.99-.25-1.59-1.24-1.37-2.24l.08-.36h-.37c-1.02-.02-1.84-.84-1.86-1.86v-.37s0,0,0,0c-1.19.27-2.38-.46-2.69-1.65h0s0,0,0,0c-1.1.54-2.42.12-3-.96h0s0,0,0,0c-.94.79-2.33.69-3.15-.23-.62.93-1.9,1.13-2.77.42h0s0,0,0,0c-.4,1.04-1.62,1.5-2.61,1h0s0,0,0,0c-.18,1.1-1.27,1.81-2.35,1.53.06,1.12-.86,2.03-1.98,1.98h0c.29,1.08-.42,2.17-1.52,2.35h0s0,0,0,0c.5.99.04,2.21-1,2.61h0s0,0,0,0c.7.87.51,2.15-.42,2.76h0s.28.25.28.25c.76.68.84,1.84.19,2.62l-.24.28.33.18c.9.48,1.25,1.58.8,2.5l-.16.33.36.09c.99.25,1.59,1.24,1.37,2.24l-.08.36h.37c1.02.02,1.84.84,1.86,1.86v.37s.37-.08.37-.08c.99-.22,1.98.38,2.24,1.37l.09.36.33-.16c.91-.45,2.02-.1,2.5.8l.18.33.28-.24c.78-.65,1.94-.57,2.62.19l.25.28h0c.61-.93,1.9-1.13,2.76-.43h0s0,0,0,0c.4-1.04,1.62-1.5,2.61-1h0s0,0,0,0c.18-1.1,1.27-1.81,2.34-1.52h0c-.06-1.11.86-2.03,1.98-1.98h0c-.29-1.08.42-2.17,1.52-2.35h0s0,0,0,0c-.5-.99-.04-2.21,1-2.61h0s0,0,0,0c-.7-.87-.51-2.15.42-2.76h0s-.28-.25-.28-.25ZM37.34,47.35c-6.48,0-11.74-5.27-11.74-11.74s5.27-11.74,11.74-11.74,11.74,5.27,11.74,11.74-5.27,11.74-11.74,11.74Z"/>
      </g>
      <g>
        <path class="cls-6" d="M30.82,39.5v-5.95h1.26v5.95h-1.26Z"/>
        <path class="cls-6" d="M35.55,39.62c-.44,0-.87-.06-1.28-.19-.41-.13-.76-.31-1.05-.56l.6-.94c.13.13.29.24.48.34.19.09.4.17.61.21.22.05.43.07.64.07.32,0,.58-.06.79-.17s.3-.28.3-.5c0-.18-.07-.32-.21-.44s-.41-.23-.79-.34l-.54-.15c-.6-.17-1.03-.39-1.29-.68s-.4-.63-.4-1.04c0-.26.06-.51.17-.73.11-.22.27-.41.46-.58.2-.16.44-.29.71-.38s.57-.13.89-.13c.43,0,.84.06,1.21.19.37.13.67.3.91.52l-.62.91c-.11-.11-.25-.21-.41-.29s-.33-.15-.52-.2c-.19-.05-.38-.07-.57-.07-.2,0-.38.03-.54.08s-.27.13-.36.24-.13.23-.13.37c0,.11.03.2.09.28.06.08.16.15.31.22.15.07.35.14.6.21l.56.17c.59.17,1.02.39,1.28.66.27.27.4.61.4,1.04,0,.37-.09.69-.28.98s-.45.5-.8.66c-.35.16-.76.24-1.24.24Z"/>
        <path class="cls-6" d="M41.71,39.62c-.45,0-.87-.08-1.26-.24-.39-.16-.72-.38-1-.66-.29-.28-.51-.61-.66-.99-.16-.38-.23-.78-.23-1.22s.08-.85.23-1.23c.16-.38.38-.71.66-.99.28-.28.62-.5,1-.65.38-.16.8-.23,1.26-.23s.87.08,1.26.24.72.38,1,.66c.29.28.51.61.67.99.16.38.24.78.24,1.21s-.08.85-.24,1.22c-.16.38-.38.71-.67.99-.28.28-.62.5-1,.66s-.8.24-1.26.24ZM41.71,38.44c.26,0,.51-.04.73-.14.22-.09.42-.22.59-.39.17-.17.3-.37.39-.61.09-.23.14-.5.14-.79,0-.39-.08-.73-.24-1.01-.16-.29-.38-.51-.66-.67-.28-.16-.59-.24-.94-.24-.26,0-.5.05-.73.14-.23.09-.42.22-.59.39s-.29.37-.39.61c-.09.24-.14.5-.14.79,0,.39.08.73.24,1.01.16.29.38.51.66.67.28.16.59.24.94.24Z"/>
      </g>
    </g>
  </g>
  <path class="cls-5" d="M22.94,13.82s-.07.03-.08,0l-.49-1.05-.22-.47s-.07-.04-.09,0l-.22.47-.49,1.05s-.06.04-.08,0l-.95-1.39s-.1-.01-.09.04l.75,3.08s.02.04.05.04h2.13s.04-.02.05-.04l.75-3.08c.01-.05-.06-.08-.09-.04l-.95,1.39Z"/>
  <path class="cls-5" d="M38.64,29.01s-.07.03-.08,0l-.49-1.05-.22-.47s-.07-.04-.09,0l-.22.47-.49,1.05s-.06.04-.08,0l-.95-1.39s-.1-.01-.09.04l.75,3.08s.02.04.05.04h2.13s.04-.02.05-.04l.75-3.08c.01-.05-.06-.08-.09-.04l-.95,1.39Z"/>
  <circle class="cls-2" cx="22.11" cy="20.63" r="11.09"/>
  <circle class="cls-3" cx="37.36" cy="35.7" r="11.09"/>
</svg>