<?xml version="1.0" encoding="UTF-8"?>
<svg id="_圖層_1" data-name="圖層 1" xmlns="http://www.w3.org/2000/svg" version="1.1" viewBox="0 0 60 60">
  <defs>
    <style>
      .cls-1 {
        stroke-width: .22px;
      }

      .cls-1, .cls-2, .cls-3 {
        fill: none;
        stroke-miterlimit: 10;
      }

      .cls-1, .cls-3 {
        stroke: #14597d;
      }

      .cls-2 {
        stroke: #ff7c24;
        stroke-width: .21px;
      }

      .cls-3 {
        stroke-width: .75px;
      }

      .cls-4 {
        fill: #14597d;
      }

      .cls-4, .cls-5, .cls-6 {
        stroke-width: 0px;
      }

      .cls-5 {
        fill: #ff7c24;
      }

      .cls-6 {
        fill: #fff;
      }
    </style>
  </defs>
  <circle class="cls-3" cx="30.19" cy="30" r="23"/>
  <circle class="cls-1" cx="30.19" cy="30" r="19.35"/>
  <circle class="cls-2" cx="30.19" cy="30" r="19.35"/>
  <circle class="cls-2" cx="30.19" cy="30" r="18.38"/>
  <g>
    <path class="cls-5" d="M22.94,27.09c-.86,0-1.62-.18-2.27-.53s-1.16-.85-1.53-1.5c-.36-.65-.55-1.41-.55-2.29,0-.64.11-1.22.32-1.75.21-.53.52-.99.91-1.38.39-.39.85-.69,1.39-.9.53-.21,1.12-.32,1.75-.32.67,0,1.24.08,1.71.26.47.17.89.41,1.26.72l-.89,1.44c-.24-.24-.53-.42-.86-.53-.33-.12-.7-.17-1.1-.17s-.78.06-1.11.18c-.33.12-.6.3-.83.53-.23.23-.4.51-.52.83-.12.32-.18.68-.18,1.08,0,.55.11,1.03.32,1.42.22.39.53.69.93.9.4.21.88.31,1.44.31.38,0,.76-.06,1.14-.18.38-.12.73-.31,1.07-.57l.81,1.48c-.39.3-.85.54-1.38.72-.53.18-1.14.26-1.83.26Z"/>
    <path class="cls-5" d="M27.41,26.91v-8.32h2.77c.85,0,1.6.18,2.24.53.65.35,1.15.84,1.52,1.47s.54,1.35.54,2.17c0,.61-.1,1.18-.31,1.69-.21.51-.5.95-.88,1.32-.38.37-.83.65-1.36.85-.53.2-1.11.3-1.75.3h-2.77ZM29.17,25.27h.88c.39,0,.74-.05,1.06-.16.31-.11.59-.27.82-.49.23-.22.41-.48.53-.79.12-.31.18-.67.18-1.07,0-.54-.11-1-.32-1.37-.22-.38-.52-.66-.91-.86-.39-.2-.84-.29-1.36-.29h-.88v5.04Z"/>
    <path class="cls-5" d="M35.99,26.91v-8.32h5.69v1.53h-3.93v1.78h3.33v1.42h-3.33v2.03h3.98v1.55h-5.73Z"/>
  </g>
  <g>
    <path class="cls-4" d="M41.95,35.86c-2.98-3.36-6.27-5.49-10.73-5.71-.33-.02-.68-.02-1.03-.02-.35,0-.7,0-1.03.02-4.46.22-7.75,2.35-10.73,5.71-.1.11-.11.26-.07.4.01.04,0,.09.04.13.04.06.3.42.75.95,1.44,1.65,4.93,5.33,10.22,5.6.2.01.41.02.61.02.07,0,.14-.01.21-.01.07,0,.14.01.21.01.2,0,.41,0,.61-.02,5.29-.27,8.78-3.95,10.22-5.6.46-.52.72-.89.76-.95.03-.04.02-.08.04-.13.04-.14.03-.28-.07-.4Z"/>
    <g>
      <path class="cls-6" d="M30.19,42.48c-3.28,0-5.94-2.67-5.94-5.94s2.67-5.94,5.94-5.94,5.94,2.67,5.94,5.94-2.67,5.94-5.94,5.94ZM30.19,31.21c-2.93,0-5.32,2.39-5.32,5.32s2.39,5.32,5.32,5.32,5.32-2.39,5.32-5.32-2.39-5.32-5.32-5.32Z"/>
      <path class="cls-6" d="M30.28,33.33c-1.72,0-3.11,1.39-3.11,3.11s1.39,3.11,3.11,3.11,3.11-1.39,3.11-3.11-1.39-3.11-3.11-3.11ZM32.29,37.06s-.02,0-.04,0c-.17-.02-.3-.17-.28-.35.14-1.29-.83-1.44-.94-1.45-.17-.02-.29-.17-.28-.35.02-.17.17-.3.34-.28.03,0,.69.08,1.13.63.31.39.43.9.36,1.52-.02.16-.15.28-.31.28Z"/>
    </g>
  </g>
</svg>