<?xml version="1.0" encoding="UTF-8"?>
<svg id="_圖層_1" data-name="圖層 1" xmlns="http://www.w3.org/2000/svg" version="1.1" viewBox="0 0 60 60">
  <g>
    <path d="M22.1,33.9c0,2.6-1.2,4-3.7,4h-8.1c-2.5,0-3.7-1.3-3.7-4v-7.3c0-1.4.3-2.4.9-3,.6-.6,1.6-.9,2.9-.9h11.5v3.6h-10.8v7.9h6.5v-2h-2v-3.2h6.4v4.9Z" fill="#ff7c24" stroke-width="0"/>
    <path d="M37.7,26.4h-4.9v11.6h-4.8v-11.6h-5.1v-3.6h14.7v3.6Z" fill="#ff7c24" stroke-width="0"/>
    <path d="M53.6,30c0,1.8-1,2.8-3,2.8h-7.3v5.2h-4.5v-15.2h11.6c1.1,0,1.9.2,2.4.7.5.5.7,1.2.7,2.3v4.4ZM49,29.8v-3.4h-5.7v3.4h5.7Z" fill="#ff7c24" stroke-width="0"/>
  </g>
  <g>
    <g>
      <polygon points="29.9 7.2 30.6 8.8 32.4 9 31 10.2 31.4 11.9 29.9 11 28.3 11.9 28.7 10.2 27.4 9 29.1 8.8 29.9 7.2" fill="#14597d" stroke-width="0"/>
      <polygon points="22.3 9.2 23.1 10.8 24.8 11 23.5 12.2 23.9 13.9 22.3 13 20.8 13.9 21.2 12.2 19.8 11 21.6 10.8 22.3 9.2" fill="#14597d" stroke-width="0"/>
      <polygon points="37.4 9.2 38.1 10.8 39.9 11 38.6 12.2 39 13.9 37.4 13 35.9 13.9 36.2 12.2 34.9 11 36.7 10.8 37.4 9.2" fill="#14597d" stroke-width="0"/>
    </g>
    <g>
      <polygon points="29.9 52.8 29.1 51.2 27.4 51 28.7 49.8 28.3 48.1 29.9 49 31.4 48.1 31 49.8 32.4 51 30.6 51.2 29.9 52.8" fill="#14597d" stroke-width="0"/>
      <polygon points="37.4 50.8 36.7 49.2 34.9 49 36.2 47.8 35.9 46.1 37.4 47 39 46.1 38.6 47.8 39.9 49 38.1 49.2 37.4 50.8" fill="#14597d" stroke-width="0"/>
      <polygon points="22.3 50.8 21.6 49.2 19.8 49 21.2 47.8 20.8 46.1 22.3 47 23.9 46.1 23.5 47.8 24.8 49 23.1 49.2 22.3 50.8" fill="#14597d" stroke-width="0"/>
    </g>
  </g>
</svg>