<?xml version="1.0" encoding="UTF-8"?>
<svg id="_圖層_1" data-name="圖層 1" xmlns="http://www.w3.org/2000/svg" version="1.1" viewBox="0 0 60 60">
  <g id="medal">
    <g>
      <path d="M33.6,24.1c-.8-.7-1.5-1.4-2.3-2.2v-10.1c0-1.7-2.6-1.7-2.6,0v10.1c-.8.7-1.5,1.4-2.3,2.2-.8.8.5,1.9,1.3,1.2.5-.5,1-1,1.6-1.5.5.3,1.1.3,1.6,0,.5.5,1,1,1.6,1.4.8.8,2.1-.4,1.3-1.2Z" fill="#ff7c24" stroke-width="0"/>
      <path d="M31.3,21.9c.8.7,1.6,1.4,2.3,2.2.8.8-.5,1.9-1.3,1.2-.8-.7-1.5-1.4-2.3-2.1,0,0,0-.4.4-.8.4-.4.8-.5.8-.5Z" fill="#ff7c24" stroke-width="0"/>
      <g>
        <path d="M27,18.8c0-2.6-.6-3-1.1-3.6-.5-.5-2.6-1.1-4.1.4-.8.8-1.4,1.7-1.9,2.6-.5.9-2,2.2-3,3.7-1.1,1.5-.7,2.3-.9,3.3-.2,1-.8,1.3-1.2,2.8-.4,1.6,0,3.7.2,4.5.2.8-.2,1.6-.2,2.7s-.2,3.4,1.3,4c1.5.6,3.3-.3,4.7-1,1.3-.7,4.5-.5,5.7-.9,1.2-.4.8-2.2.8-3.9s.6-2.9.8-4.8c.2-1.9-.2-3.9-.4-4.4-.2-.6-.5-2.9-.5-5.4ZM20.5,25.4c0-.4.3-.7.7-.7s.7.3.7.7-.3.7-.7.7-.7-.3-.7-.7ZM21.5,33.9c-.4,0-.7-.3-.7-.7s.3-.7.7-.7.7.3.7.7-.3.7-.7.7ZM22.7,20.9c-.5,0-.8-.4-.8-.8s.4-.8.8-.8.8.4.8.8-.4.8-.8.8ZM24.1,29c-.4,0-.7-.3-.7-.7s.3-.7.7-.7.7.3.7.7-.3.7-.7.7ZM24.3,23.1c-.5,0-1-.4-1-1s.4-1,1-1,1,.4,1,1-.4,1-1,1Z" fill="#ff7c24" stroke-width="0"/>
        <path d="M45.2,32.4c.2-.8.6-2.9.2-4.5-.4-1.6-1-1.8-1.2-2.8-.2-1,.2-1.7-.9-3.3s-2.6-2.8-3-3.7c-.5-.9-1.2-1.8-1.9-2.6-1.5-1.5-3.6-.9-4.1-.4-.5.5-1.1,1-1.1,3.6s-.3,4.9-.5,5.4c-.2.6-.7,2.5-.4,4.4.2,1.9.8,3,.8,4.8s-.4,3.5.8,3.9c1.2.4,4.4.1,5.7.9,1.3.7,3.2,1.6,4.7,1,1.5-.6,1.3-2.9,1.3-4s-.4-2-.2-2.7ZM38.9,23.3c.5-.1.9-.5.9-.9,0-.2.3-.3.5-.4.3-.1.7-.1,1-.1.2,0,.2,0,.2,0,0,0,0,0,0,0,.1.3.1.5,0,.7-.1,0-.3,0-.4-.1-.1,0-.2,0-.3,0-.8,0-.5.1-.6.3,0,.1-.1.3-.2.4-.2.2-.7.4-1.1.4,0,0,0,0,0,0s0,0,0,0ZM33.4,22.1s0,0,0,0c.1-.1.3-.3.5-.4.3,0,.7,0,.9-.1,0,0,0-.1,0-.2,0,0,.2-.1.3-.2,0,0,0-.2,0-.3-.1-.3-.2-.7-.1-1,.1-.3.4-.2.4-.8,0-.3-.4-.6-.4-.9,0-.4,0-.7.2-1.1.1-.3.5-.5.8-.4,0,0,0,0,0,.1-1,.2-.2,2,0,2.5,0,.1,0,.3,0,.4,0,0-.2.1-.3.2-.4.3,0,.8,0,1.1,0,0,0,0,0,.1.3.2.5.3.8,0,.1-.1.3-.2.5-.2.4,0,.8.7,1.2.3.2-.3.3-.7.3-1,0,0,.1,0,.1,0,0,.5.2,1.4-.7,1.5-.2,0-.4,0-.5-.2-.2,0-.3-.3-.5-.1,0,0-.2.2-.3.3-.3.2-.7,0-1,0,0,.1-.2.2-.4.3-.4,0-.7,0-.9.2.5,0,1,.2,1.4.4.9.3.8,1,2,.8.6,0,.9.4,1.1.7.3.6.5,1,1.5.8.3,0,.5,0,.9,0,0,0,0,0,0,0,0,0,0,0,0,0,0,0-.1,0-.1,0,0,.1-1.7.5-1.9.4-.6-.1-.8-.5-1-.9-.4-.7-.9-.4-1.5-.6.2.2.3.5.4.7.1.5-.6.9.3,1.3,1,.5,1,.8.7,1.7,0,0,0,0,0,0,0-.4.1-1.1-.5-1.3-.2,0-.4-.1-.6-.2-.4-.2-.6-.5-.6-.8,0-.2.3-.5.3-.7-.2-.5-.6-.8-.6-1.3,0,0,0,0,0,0-.3-.4-.9-.6-1.5-.7,0,0,0,0,0,0-.2-.1-.6-.1-.9-.1-.1,0-.1-.2,0-.4ZM36.1,29.4c0,.3,0,.4.3.5.2,0,.3.2.4.3.1.3.1.5.4.8.1.1,0,.2,0,.3,0,0-.1,0-.1,0,0-.1-.3-.5-.4-.6-.2-.4-.6-.2-.9-.5-.2-.1-.1-.4-.1-.6,0-.2,0-.4,0-.6,0-.2-.2-.5-.4-.6-.2,0-.3,0-.5,0-.3-.3-.5-.5-.4-.6,0,0,.1,0,.2-.1,0,0,0,.2,0,.3.2,0,.3,0,.5,0,.3,0,.6,0,.9-.2.3,0,.7,0,.9.2.1.2.3.8.8.6.2,0,.4-.3.7-.4.3,0,.4-.1.6,0,0,0,0,.1,0,0-.2-.1-.9.6-1.1.7-.3.1-.6,0-.9,0-.4-.1-.4-.8-.9-.7.4.3.3.8.2,1.1ZM32.7,26.1s0,0,0,0c.5-.1.9-.5.9-.9,0-.2.3-.3.5-.4.3-.1.7-.1,1-.1.2,0,.2,0,.2,0,0,0,0,0,0,0,.1.3.1.5,0,.7-.1,0-.3,0-.4-.1-.1,0-.2,0-.3,0-.8,0-.5.1-.6.3,0,.1-.1.3-.2.4-.2.2-.7.4-1.1.4,0,0,0,0,0,0ZM32.9,30.2s-.1,0,0,0c.1,0,.2-.1.3-.2,0,0,.2,0,.3-.1.3-.2.5-.3.4-.6,0-.5.7-.2,1-.2,0,.1,0,.2,0,.4-.1,0-.3,0-.4,0,0,0,0,0,0,0,0,0,0,0,0,.1,0,.5-.8.6-1.4.8ZM44.1,26.9c-.8-.6-1.4,1.1-1.6,1.6,0,.1-.2.2-.3.2-.1,0-.2,0-.3,0-.4-.1-.5.4-.7.7,0,0,0,0,0,.1,0,.3.1.6.5.6.2,0,.3,0,.4.2.3.2,0,1,.5,1,.3,0,.6-.2.9-.4,0,0,.1,0,0,0-.3.3-.8,1-1.4.4-.1-.1-.2-.3-.2-.4,0-.2,0-.4-.2-.4-.1,0-.2,0-.3,0-.3,0-.4-.4-.5-.7-.1,0-.3,0-.4,0-.3-.2-.5-.4-.7-.5.2.4.4.8.6,1.2.3.8-.1,1.2.6,1.8.4.4.3.8.2,1.2-.2.6-.3,1,.4,1.5.3.2.3.4.5.6,0,0,0,0,0,0,0,0,0,0,0,0,0,0,0,0,0,0,0,0-1.3-.8-1.4-1-.3-.5-.2-.8,0-1.2.3-.7-.3-.9-.5-1.4,0,.2-.1.5-.2.7-.2.4-.9.1-.7.9.3,1,0,1.2-.7,1.5,0,0,0,0,0,0,.2-.3.8-.6.6-1.1,0-.2-.2-.4-.2-.5-.1-.3,0-.6,0-.8-.4.2-.9.2-1.3,0-.5-.1-.8,0-1.3,0-.2,0-.6,0-.8,0-.2-.1-.4-.3-.6-.4,0,0,0,.2,0,.2-.2.5.8.2,1,.3.2.1.4.2.4.5,0,.6,0,.8.7.9.3,0,.6.3.7.5.4.4-.2,1.2-.5,1.5,0,0-.1,0,0,0,0-.1.3-.7.3-.8,0-1-.9-.6-1.5-.8-.4-.2-.4-.7-.3-.9.1-.6-1-.2-1.4-.6-.4-.3.2-.7.2-1,0-.2.2-.3.3-.5,0,0,0,0,0,0,0,0,0,0,0,0,0,0,0,0,0,0,0,0,.2,0,.3.1,0,0,0,0,0,0,.1,0,.2,0,.4.2.5.6,1,.1,1.7.1.5,0,1.5.5,1.7-.1,0-.2.1-.4.3-.5,0,0,.1,0,.2,0,.2,0,.1,0,.2.1,0,0,0,.1,0,0,0,0-.2.5-.3.8.2,0,.4,0,.5-.2.2-.4.1-.9.5-1.2,0,0,0,0,0,0,0-.5-.1-1-.4-1.5,0,0,0,0,0,0,0-.2-.3-.5-.5-.7,0,0,0-.2.2-.3,0,0,0,0,0,0,.2,0,.4,0,.6,0,.2.1.4.4.6.5,0,0,0-.1.1-.1,0,0,.2,0,.3,0,0,0,0-.1.1-.2.1-.3.3-.6.6-.7.3-.1.4.1.7-.2.2-.2.2-.6.4-.8.3-.2.5-.4.8-.6.3-.1.6,0,.7.3,0,0,0,.1,0,0Z" fill="#ff7c24" stroke-width="0"/>
        <path d="M38.7,32.3s0,0-.1,0c0,0,0,0,0,0,0,0,0,0,0,0,0,0,0,0,0-.1Z" fill="#14597d" stroke-width="0"/>
      </g>
    </g>
  </g>
  <g>
    <g>
      <path d="M11.2,16.6l-.4.8s0,0,0,0c0,0,0,0,0,0,0,0,0,0,0,0l.5-.7Z" fill="#14597d" stroke-width="0"/>
      <path d="M10.1,18.9c-.2.5-.4,1.1-.7,1.6h0c0,.1-.2.2-.3.1-.1,0-.2-.2-.1-.3,0,0,0,0,0,0,.3-.5.5-1.1.8-1.6,0,0,.1,0,.2,0,0,0,0,.1,0,.2h0Z" fill="#14597d" stroke-width="0"/>
      <path d="M8.8,22.2l-.4,1.7h0c0,.2-.2.3-.4.2-.2,0-.3-.2-.2-.4,0,0,0,0,0,0l.6-1.7c0-.1.2-.2.3-.2.1,0,.2.2.2.3h0Z" fill="#14597d" stroke-width="0"/>
      <path d="M8,25.6l-.2,1.7h0c0,.2-.2.3-.4.3-.2,0-.3-.2-.3-.4,0,0,0,0,0,0l.3-1.8c0-.2.2-.3.4-.3.2,0,.3.2.3.4h0Z" fill="#14597d" stroke-width="0"/>
      <path d="M7.7,29.1c0,.6,0,1.2,0,1.7,0,.2-.2.4-.4.4-.2,0-.4-.2-.4-.3,0-.6,0-1.2,0-1.8,0-.2.2-.4.4-.3.2,0,.3.2.3.4Z" fill="#14597d" stroke-width="0"/>
      <path d="M7.8,32.6l.2,1.7h0c0,.2-.1.4-.3.4-.2,0-.3,0-.4-.3l-.3-1.8c0-.2.1-.4.3-.4.2,0,.4.1.4.3,0,0,0,0,0,0h0Z" fill="#14597d" stroke-width="0"/>
      <path d="M8.4,36.1l.4,1.7h0c0,.2,0,.3-.2.3-.1,0-.3,0-.3-.2l-.6-1.7c0-.2,0-.3.2-.4.2,0,.3,0,.4.2,0,0,0,0,0,0h0Z" fill="#14597d" stroke-width="0"/>
      <path d="M9.4,39.4c.2.5.5,1.1.7,1.6h0c0,0,0,.2,0,.2,0,0-.1,0-.2,0-.3-.5-.5-1.1-.8-1.6,0-.1,0-.2,0-.3.1,0,.2,0,.3,0,0,0,0,0,0,0h0Z" fill="#14597d" stroke-width="0"/>
      <path d="M10.8,42.7l.4.8-.5-.7s0,0,0,0,0,0,0,0c0,0,0,0,0,0Z" fill="#14597d" stroke-width="0"/>
    </g>
    <g>
      <path d="M48.8,43.4l.4-.8s0,0,0,0c0,0,0,0,0,0,0,0,0,0,0,0l-.5.7Z" fill="#14597d" stroke-width="0"/>
      <path d="M49.9,41.1c.2-.5.4-1.1.7-1.6h0c0-.1.2-.2.3-.1s.2.2.1.3c0,0,0,0,0,0-.3.5-.5,1.1-.8,1.6,0,0-.1,0-.2,0,0,0,0-.1,0-.2h0Z" fill="#14597d" stroke-width="0"/>
      <path d="M51.2,37.8l.4-1.7h0c0-.2.2-.3.4-.2.2,0,.3.2.2.4,0,0,0,0,0,0l-.6,1.7c0,.1-.2.2-.3.2-.1,0-.2-.2-.2-.3h0Z" fill="#14597d" stroke-width="0"/>
      <path d="M52,34.4l.2-1.7h0c0-.2.2-.3.4-.3.2,0,.3.2.3.4,0,0,0,0,0,0l-.3,1.8c0,.2-.2.3-.4.3-.2,0-.3-.2-.3-.4h0Z" fill="#14597d" stroke-width="0"/>
      <path d="M52.3,30.9c0-.6,0-1.2,0-1.7,0-.2.2-.4.4-.4.2,0,.4.2.4.3,0,.6,0,1.2,0,1.8,0,.2-.2.4-.4.3-.2,0-.3-.2-.3-.4Z" fill="#14597d" stroke-width="0"/>
      <path d="M52.2,27.4l-.2-1.7h0c0-.2.1-.4.3-.4.2,0,.3,0,.4.3l.3,1.8c0,.2-.1.4-.3.4-.2,0-.4-.1-.4-.3,0,0,0,0,0,0h0Z" fill="#14597d" stroke-width="0"/>
      <path d="M51.6,23.9l-.4-1.7h0c0-.2,0-.3.2-.3.1,0,.3,0,.3.2l.6,1.7c0,.2,0,.3-.2.4-.2,0-.3,0-.4-.2,0,0,0,0,0,0h0Z" fill="#14597d" stroke-width="0"/>
      <path d="M50.6,20.6c-.2-.5-.5-1.1-.7-1.6h0c0,0,0-.2,0-.2,0,0,.1,0,.2,0,.3.5.5,1.1.8,1.6,0,.1,0,.2,0,.3-.1,0-.2,0-.3,0,0,0,0,0,0,0h0Z" fill="#14597d" stroke-width="0"/>
      <path d="M49.2,17.3l-.4-.8.5.7s0,0,0,0,0,0,0,0c0,0,0,0,0,0Z" fill="#14597d" stroke-width="0"/>
    </g>
  </g>
  <g>
    <polygon points="30 52.8 29.3 51.3 27.7 51.1 28.9 50 28.6 48.4 30 49.3 31.4 48.4 31.1 50 32.3 51.1 30.7 51.3 30 52.8" fill="#14597d" stroke-width="0"/>
    <polygon points="39 50.2 38.3 48.7 36.7 48.6 37.9 47.5 37.5 45.8 39 46.7 40.4 45.8 40 47.5 41.3 48.6 39.6 48.7 39 50.2" fill="#14597d" stroke-width="0"/>
    <polygon points="21 50.2 20.4 48.7 18.7 48.6 20 47.5 19.6 45.8 21 46.7 22.5 45.8 22.1 47.5 23.3 48.6 21.7 48.7 21 50.2" fill="#14597d" stroke-width="0"/>
  </g>
</svg>