<?xml version="1.0" encoding="UTF-8"?>
<svg id="_圖層_1" data-name="圖層 1" xmlns="http://www.w3.org/2000/svg" version="1.1" viewBox="0 0 60 60">
  <defs>
    <style>
      .cls-1 {
        stroke-width: .75px;
      }

      .cls-1, .cls-2 {
        stroke-miterlimit: 10;
      }

      .cls-1, .cls-2, .cls-3, .cls-4 {
        fill: none;
        stroke: #14597d;
      }

      .cls-2 {
        stroke-width: .25px;
      }

      .cls-5 {
        fill: #14597d;
      }

      .cls-5, .cls-6 {
        stroke-width: 0px;
      }

      .cls-6 {
        fill: #ff7c24;
      }

      .cls-3 {
        stroke-dasharray: 0 0 1.54 1.54;
      }

      .cls-3, .cls-4 {
        stroke-linecap: round;
        stroke-linejoin: round;
        stroke-width: .5px;
      }
    </style>
  </defs>
  <circle class="cls-1" cx="30" cy="30" r="23"/>
  <g>
    <path class="cls-6" d="M17.1,20.89h2.66v8.59h-2.66v-8.59Z"/>
    <path class="cls-6" d="M21.38,20.89h2.48l3.23,4.75v-4.75h2.5v8.59h-2.5l-3.22-4.72v4.72h-2.5v-8.59Z"/>
    <path class="cls-6" d="M36.78,25.97l2.33.7c-.16.65-.4,1.2-.74,1.63s-.75.77-1.25.99-1.13.33-1.9.33c-.93,0-1.7-.14-2.29-.41-.59-.27-1.1-.75-1.53-1.43s-.64-1.56-.64-2.62c0-1.42.38-2.51,1.13-3.28.76-.76,1.83-1.14,3.21-1.14,1.08,0,1.93.22,2.55.66s1.08,1.11,1.38,2.02l-2.34.52c-.08-.26-.17-.45-.26-.57-.15-.2-.33-.36-.54-.47s-.46-.16-.72-.16c-.6,0-1.06.24-1.38.73-.24.36-.36.92-.36,1.69,0,.95.14,1.6.43,1.96s.7.53,1.22.53.89-.14,1.15-.43.45-.7.57-1.24Z"/>
    <path class="cls-6" d="M40.2,20.89h2.66v8.59h-2.66v-8.59Z"/>
  </g>
  <g>
    <g>
      <path class="cls-4" d="M46.34,41.67c.13-.21.26-.42.39-.64"/>
      <path class="cls-3" d="M47.47,39.68c1.45-2.92,2.27-6.2,2.27-9.68,0-3.75-.96-7.28-2.63-10.36"/>
      <path class="cls-4" d="M46.73,18.96c-.13-.22-.26-.43-.39-.64"/>
    </g>
    <g>
      <path class="cls-4" d="M13.66,18.33c-.13.21-.26.42-.39.64"/>
      <path class="cls-3" d="M12.53,20.32c-1.45,2.92-2.27,6.2-2.27,9.68,0,3.75.96,7.28,2.63,10.36"/>
      <path class="cls-4" d="M13.27,41.04c.13.22.26.43.39.64"/>
    </g>
  </g>
  <g>
    <polygon class="cls-5" points="30 11.01 30.48 12.09 31.66 12.21 30.77 13 31.02 14.16 30 13.57 28.98 14.16 29.23 13 28.34 12.21 29.52 12.09 30 11.01"/>
    <polygon class="cls-5" points="25 12.33 25.48 13.42 26.66 13.54 25.78 14.33 26.03 15.49 25 14.89 23.98 15.49 24.23 14.33 23.34 13.54 24.52 13.42 25 12.33"/>
    <polygon class="cls-5" points="35 12.33 35.48 13.42 36.66 13.54 35.77 14.33 36.02 15.49 35 14.89 33.97 15.49 34.22 14.33 33.34 13.54 34.52 13.42 35 12.33"/>
  </g>
  <line class="cls-2" x1="13.16" y1="32.85" x2="46.84" y2="32.85"/>
  <g>
    <path class="cls-5" d="M24.21,38.51v-2.94h.58l1.2,1.96v-1.96h.55v2.94h-.6l-1.19-1.92v1.92h-.55Z"/>
    <path class="cls-5" d="M29.82,38.51h-.65l-.26-.67h-1.18l-.24.67h-.63l1.15-2.94h.63l1.18,2.94ZM28.73,37.35l-.41-1.09-.4,1.09h.8Z"/>
    <path class="cls-5" d="M30.13,38.51v-2.94h.89l.53,2.01.53-2.01h.89v2.94h-.55v-2.32l-.58,2.32h-.57l-.58-2.32v2.32h-.55Z"/>
    <path class="cls-5" d="M33.56,38.51v-2.94h2.18v.5h-1.59v.65h1.48v.5h-1.48v.8h1.64v.5h-2.24Z"/>
  </g>
  <g>
    <path class="cls-6" d="M19.85,44.78l.93-.11c.03.24.11.42.24.54.13.13.29.19.47.19.2,0,.36-.08.5-.23s.2-.35.2-.61c0-.24-.06-.43-.19-.57s-.29-.21-.48-.21c-.12,0-.27.02-.44.07l.11-.78c.26,0,.46-.05.59-.17.14-.12.21-.28.21-.48,0-.17-.05-.3-.15-.4-.1-.1-.23-.15-.4-.15s-.3.06-.42.17c-.12.11-.19.28-.21.5l-.89-.15c.06-.3.15-.55.28-.73.12-.18.3-.32.52-.43.22-.1.47-.16.75-.16.47,0,.85.15,1.13.45.23.25.35.52.35.83,0,.44-.24.79-.72,1.05.29.06.52.2.69.41s.26.47.26.78c0,.44-.16.81-.48,1.12s-.72.46-1.2.46c-.45,0-.83-.13-1.13-.39-.3-.26-.47-.6-.52-1.02Z"/>
    <path class="cls-6" d="M24.95,43.41c-.25-.1-.43-.25-.54-.43-.11-.18-.17-.38-.17-.6,0-.37.13-.68.39-.93s.63-.37,1.11-.37.85.12,1.11.37c.26.24.39.55.39.93,0,.23-.06.44-.18.62-.12.18-.29.32-.51.42.28.11.49.27.63.49s.22.46.22.74c0,.46-.15.84-.44,1.13s-.69.43-1.18.43c-.46,0-.84-.12-1.14-.36-.36-.28-.54-.67-.54-1.16,0-.27.07-.52.2-.75.13-.23.35-.4.64-.52ZM25.06,44.59c0,.26.07.47.2.62s.3.22.51.22.36-.07.49-.21c.13-.14.2-.35.2-.62,0-.23-.07-.42-.2-.57-.13-.14-.3-.21-.5-.21-.23,0-.41.08-.52.24s-.17.34-.17.53ZM25.15,42.44c0,.19.05.34.16.45s.25.16.43.16.33-.05.44-.16c.11-.11.16-.26.16-.45,0-.18-.05-.32-.16-.43-.11-.11-.25-.16-.43-.16s-.33.05-.44.16-.16.25-.16.43Z"/>
    <path class="cls-6" d="M31.61,45.22v.89h-3.37c.04-.34.15-.66.33-.96.18-.3.54-.7,1.08-1.2.43-.4.7-.68.8-.82.13-.2.2-.39.2-.59,0-.21-.06-.38-.17-.49-.12-.11-.27-.17-.48-.17s-.36.06-.48.18-.19.32-.21.6l-.96-.1c.06-.53.24-.91.54-1.14s.68-.35,1.13-.35c.5,0,.88.13,1.17.4s.42.6.42.99c0,.23-.04.44-.12.64-.08.2-.21.42-.38.64-.12.15-.33.36-.63.64s-.5.46-.58.55-.15.18-.2.27h1.91Z"/>
    <path class="cls-6" d="M32.63,44.95l.93-.1c.02.19.08.33.18.42s.22.14.38.14c.2,0,.37-.09.51-.27s.23-.56.27-1.13c-.24.28-.54.42-.91.42-.39,0-.73-.15-1.02-.46-.29-.3-.43-.7-.43-1.19s.15-.92.45-1.23c.3-.31.69-.47,1.15-.47.51,0,.93.2,1.25.59.33.39.49,1.04.49,1.94s-.17,1.58-.51,1.98c-.34.41-.78.61-1.33.61-.39,0-.71-.1-.95-.31-.24-.21-.4-.52-.46-.94ZM34.81,42.85c0-.31-.07-.55-.21-.72s-.31-.26-.49-.26-.33.07-.44.21c-.12.14-.18.37-.18.69s.06.56.19.71c.13.15.29.23.48.23s.34-.07.47-.22c.13-.15.19-.36.19-.64Z"/>
    <path class="cls-6" d="M36.82,44.78l.93-.11c.03.24.11.42.24.54.13.13.29.19.47.19.2,0,.36-.08.5-.23s.2-.35.2-.61c0-.24-.06-.43-.19-.57s-.29-.21-.48-.21c-.12,0-.27.02-.44.07l.11-.78c.26,0,.46-.05.59-.17.14-.12.21-.28.21-.48,0-.17-.05-.3-.15-.4-.1-.1-.23-.15-.4-.15s-.3.06-.42.17c-.12.11-.19.28-.21.5l-.89-.15c.06-.3.15-.55.28-.73.12-.18.3-.32.52-.43.22-.1.47-.16.75-.16.47,0,.85.15,1.13.45.23.25.35.52.35.83,0,.44-.24.79-.72,1.05.29.06.52.2.69.41s.26.47.26.78c0,.44-.16.81-.48,1.12s-.72.46-1.2.46c-.45,0-.83-.13-1.13-.39-.3-.26-.47-.6-.52-1.02Z"/>
  </g>
</svg>