<?xml version="1.0" encoding="UTF-8"?>
<svg id="_圖層_1" data-name="圖層 1" xmlns="http://www.w3.org/2000/svg" version="1.1" viewBox="0 0 60 60">
  <defs>
    <style>
      .cls-1 {
        fill: none;
        stroke: #ff7c24;
        stroke-miterlimit: 10;
        stroke-width: .5px;
      }

      .cls-2 {
        fill: #14597d;
      }

      .cls-2, .cls-3 {
        stroke-width: 0px;
      }

      .cls-3 {
        fill: #ff7c24;
      }
    </style>
  </defs>
  <path class="cls-2" d="M52.52,30.65c-1.31-1.17-1.46-3.18-.33-4.53l.41-.49-.57-.3c-1.55-.83-2.16-2.74-1.39-4.32l.28-.58-.62-.16c-1.71-.44-2.75-2.15-2.37-3.87l.14-.62h-.64c-1.76-.04-3.18-1.46-3.21-3.22v-.64s-.01,0-.01,0c-2.07.46-4.13-.8-4.66-2.85h0s0,0,0,0c-1.9.94-4.2.2-5.2-1.67h0s0,0,0,0c-1.62,1.36-4.03,1.19-5.45-.39-1.07,1.61-3.29,1.96-4.79.74h0s0,0,0,0c-.7,1.8-2.8,2.6-4.52,1.73h0s0,0,0,0c-.31,1.91-2.19,3.14-4.06,2.64.1,1.93-1.49,3.52-3.43,3.43h0c.49,1.87-.73,3.76-2.64,4.06h0s0,0,0,0c.87,1.72.07,3.82-1.73,4.52h0s0,0,0,0c1.22,1.5.88,3.72-.73,4.78h0s.48.43.48.43c1.31,1.17,1.46,3.18.33,4.53l-.41.49.57.3c1.55.83,2.17,2.74,1.39,4.32l-.28.58.62.16c1.71.44,2.75,2.15,2.37,3.87l-.14.62h.64c1.76.04,3.18,1.46,3.21,3.22v.64s.64-.14.64-.14c1.72-.38,3.43.66,3.87,2.37l.16.62.58-.29c1.58-.78,3.49-.17,4.32,1.39l.3.57.49-.41c1.35-1.13,3.36-.99,4.53.33l.43.48h0c1.06-1.62,3.28-1.96,4.78-.74h0s0,0,0,0c.7-1.8,2.8-2.6,4.52-1.73h0s0,0,0,0c.31-1.91,2.19-3.13,4.06-2.64h0c-.1-1.93,1.49-3.52,3.43-3.42h0c-.49-1.87.73-3.76,2.64-4.06h0s0,0,0,0c-.87-1.72-.07-3.82,1.73-4.52h0s0,0,0,0c-1.22-1.5-.88-3.72.73-4.78h0s-.48-.43-.48-.43ZM29.97,50.3c-11.21,0-20.33-9.12-20.33-20.33S18.76,9.64,29.97,9.64s20.33,9.12,20.33,20.33-9.12,20.33-20.33,20.33Z"/>
  <g>
    <g>
      <g>
        <path class="cls-2" d="M31.84,40.3h-8.32c-.2,0-.36-.16-.36-.36v-17.27c0-.2.16-.36.36-.36h14.18c.2,0,.36.16.36.36v9.25c0,.2-.16.36-.36.36s-.36-.16-.36-.36v-8.88h-13.46v16.55h7.95c.2,0,.36.16.36.36s-.16.36-.36.36Z"/>
        <path class="cls-2" d="M37.71,23.02h-14.51c-1.33,0-2.41-.96-2.41-2.13s1.08-2.13,2.41-2.13h13.79c.12,0,.24.06.3.17.07.1.08.23.02.34-.44.98-.22,2.02.68,3.17.09.11.1.26.04.38-.06.12-.19.2-.32.2ZM23.19,19.48c-.93,0-1.69.63-1.69,1.41s.76,1.41,1.69,1.41h13.82c-.6-.98-.78-1.92-.54-2.82h-13.28Z"/>
        <path class="cls-2" d="M23.53,40.3c-1.51,0-2.74-1.23-2.74-2.74v-16.67c0-.2.16-.36.36-.36s.36.16.36.36v16.67c0,.99.72,1.82,1.66,1.99v-16.88c0-.2.16-.36.36-.36s.36.16.36.36v17.27c0,.2-.16.36-.36.36Z"/>
        <path class="cls-2" d="M34.52,27.95h-7.81c-.2,0-.36-.16-.36-.36s.16-.36.36-.36h7.81c.2,0,.36.16.36.36s-.16.36-.36.36Z"/>
        <path class="cls-2" d="M34.52,30.85h-7.81c-.2,0-.36-.16-.36-.36s.16-.36.36-.36h7.81c.2,0,.36.16.36.36s-.16.36-.36.36Z"/>
        <path class="cls-2" d="M33.7,33.75h-6.99c-.2,0-.36-.16-.36-.36s.16-.36.36-.36h6.99c.2,0,.36.16.36.36s-.16.36-.36.36Z"/>
      </g>
      <polygon class="cls-2" points="21.34 21.86 23.54 22.96 23.54 39.88 22.01 39.39 21.09 37.74 21.34 21.86"/>
    </g>
    <path class="cls-3" d="M41.39,36.27c-.2-.48-.49-.91-.86-1.28s-.8-.66-1.28-.86c-.49-.21-1.02-.32-1.56-.32s-1.07.11-1.56.32c-.48.2-.91.49-1.28.86s-.66.8-.86,1.28c-.21.49-.32,1.02-.32,1.56s.11,1.07.32,1.56c.2.48.49.91.86,1.28s.8.66,1.28.86c.49.21,1.02.32,1.56.32s1.07-.11,1.56-.32c.48-.2.91-.49,1.28-.86s.66-.8.86-1.28c.21-.49.32-1.02.32-1.56s-.11-1.07-.32-1.56ZM37.18,40.29l-1.07-.92-1.03-.88.91-1.06.94.81,2.22-2.87,1.13.83-3.11,4.09Z"/>
  </g>
  <circle class="cls-1" cx="30" cy="30" r="18.83"/>
</svg>