<?xml version="1.0" encoding="UTF-8"?>
<svg id="_圖層_1" data-name="圖層 1" xmlns="http://www.w3.org/2000/svg" version="1.1" viewBox="0 0 60 60">
  <g>
    <path d="M19.5,26c-1.2,0-2.3-.3-3.3-.8-.9-.5-1.7-1.2-2.2-2.2s-.8-2-.8-3.3.2-1.8.5-2.5c.3-.8.7-1.4,1.3-2,.6-.6,1.2-1,2-1.3.8-.3,1.6-.5,2.5-.5s1.8.1,2.5.4c.7.2,1.3.6,1.8,1l-1.3,2.1c-.3-.3-.8-.6-1.2-.8-.5-.2-1-.3-1.6-.3s-1.1,0-1.6.3c-.5.2-.9.4-1.2.8-.3.3-.6.7-.8,1.2s-.3,1-.3,1.6.2,1.5.5,2c.3.6.8,1,1.3,1.3.6.3,1.3.5,2.1.5s1.1,0,1.6-.3,1-.4,1.5-.8l1.2,2.1c-.6.4-1.2.8-2,1-.8.3-1.6.4-2.6.4Z" fill="#ff7c24" stroke-width="0"/>
    <path d="M25.9,25.7v-12h4c1.2,0,2.3.3,3.2.8.9.5,1.7,1.2,2.2,2.1.5.9.8,1.9.8,3.1s-.1,1.7-.4,2.4c-.3.7-.7,1.4-1.3,1.9-.5.5-1.2.9-2,1.2-.8.3-1.6.4-2.5.4h-4ZM28.4,23.4h1.3c.6,0,1.1,0,1.5-.2.5-.2.8-.4,1.2-.7.3-.3.6-.7.8-1.1s.3-1,.3-1.5-.2-1.4-.5-2c-.3-.5-.7-1-1.3-1.2-.6-.3-1.2-.4-1.9-.4h-1.3v7.2Z" fill="#ff7c24" stroke-width="0"/>
    <path d="M38.2,25.7v-12h8.2v2.2h-5.6v2.6h4.8v2h-4.8v2.9h5.7v2.2h-8.2Z" fill="#ff7c24" stroke-width="0"/>
  </g>
  <g>
    <path d="M46.8,38.6c-4.3-4.8-9-7.9-15.4-8.2-.5,0-1,0-1.5,0-.5,0-1,0-1.5,0-6.4.3-11.1,3.4-15.4,8.2-.1.2-.2.4-.1.6,0,0,0,.1,0,.2,0,0,.4.6,1.1,1.4,2.1,2.4,7.1,7.7,14.7,8,.3,0,.6,0,.9,0s.2,0,.3,0c.1,0,.2,0,.3,0,.3,0,.6,0,.9,0,7.6-.4,12.6-5.7,14.7-8,.7-.8,1-1.3,1.1-1.4,0,0,0-.1,0-.2,0-.2,0-.4-.1-.6Z" fill="#14597d" stroke-width="0"/>
    <g>
      <path d="M29.9,48.1c-4.7,0-8.5-3.8-8.5-8.5s3.8-8.5,8.5-8.5,8.5,3.8,8.5,8.5-3.8,8.5-8.5,8.5ZM29.9,31.9c-4.2,0-7.6,3.4-7.6,7.6s3.4,7.6,7.6,7.6,7.6-3.4,7.6-7.6-3.4-7.6-7.6-7.6Z" fill="#fff" stroke-width="0"/>
      <path d="M30,35c-2.5,0-4.5,2-4.5,4.5s2,4.5,4.5,4.5,4.5-2,4.5-4.5-2-4.5-4.5-4.5ZM32.9,40.3s0,0,0,0c-.2,0-.4-.3-.4-.5.2-1.9-1.2-2.1-1.4-2.1-.2,0-.4-.3-.4-.5,0-.2.2-.4.5-.4,0,0,1,.1,1.6.9.4.6.6,1.3.5,2.2,0,.2-.2.4-.4.4Z" fill="#fff" stroke-width="0"/>
    </g>
  </g>
</svg>