<?xml version="1.0" encoding="UTF-8"?>
<svg id="_圖層_1" data-name="圖層 1" xmlns="http://www.w3.org/2000/svg" version="1.1" viewBox="0 0 60 60">
  <g>
    <path d="M30,9.5c-7,0-12.6,5.7-12.6,12.6s1.7,7.3,4.4,9.6c.2-.1.5-.2.8-.4-1-.8-1.9-1.8-2.6-2.9h4.3c.3.8.7,1.5,1.1,2.1.2,0,.4,0,.5,0,.1,0,.2,0,.4,0-.4-.6-.8-1.3-1.2-2.1h4.5v2.2s0,0,.1,0c.2,0,.4.1.6.2v-2.4h4.5c-.5,1.2-1.2,2.2-2,3.1.2.1.4.3.6.5.9-1,1.7-2.2,2.3-3.6h4.3c-1.5,2.3-3.7,4.1-6.4,4.9-.2.6-.8,1-1.5,1s-.9,0-1.3-.2c-.4,0-.8-.2-1.2-.2s0,0,0,0c.3.1.6.3,1,.4.3,0,.5.2.7.2,6.4-.6,11.4-6,11.4-12.6s-5.7-12.6-12.6-12.6ZM28.5,10.4c-2,1.1-3.4,2.9-4.3,5.3h-4.1c1.9-2.8,4.9-4.9,8.4-5.3ZM19.6,16.5h4.3c-.5,1.6-.7,3.3-.7,5.3h-5.1c0-1.9.6-3.7,1.5-5.3ZM19.6,27.8c-.8-1.6-1.4-3.3-1.4-5.2h5.1c0,1.9.3,3.7.8,5.2h-4.5ZM29.6,27.8h-4.8c-.5-1.5-.9-3.3-.9-5.2h5.6v5.2ZM29.6,21.8h-5.6c0-2,.3-3.8.8-5.3h4.9v5.3ZM29.6,15.7h-4.6c.9-2.4,2.5-4.1,4.6-5v5ZM41.9,21.8h-5c0-2-.3-3.8-.7-5.3h4.3c.9,1.6,1.4,3.4,1.5,5.3ZM39.9,15.7h-4.1c-.9-2.4-2.3-4.2-4.3-5.3,3.5.5,6.5,2.5,8.4,5.3ZM30.4,10.7c2.2.9,3.7,2.6,4.7,5h-4.7v-5ZM30.4,16.5h4.9c.5,1.5.7,3.3.8,5.3h-5.7v-5.3ZM35.2,27.8h-4.8v-5.2h5.7c0,1.9-.3,3.7-.9,5.2ZM40.4,27.8h-4.4c.5-1.6.8-3.3.8-5.2h5c0,1.9-.6,3.7-1.4,5.2Z" fill="#14597d" stroke-width="0"/>
    <path d="M17.4,32.6v3.6h3.7c.7,0,1.4.1,2,.4l3.4,1.4s1.3.6,2.5.5c1.8-.1,3.4-.4,4.1-.5.5,0,1-.3,1.5-.6l2.8-2s.7-1.4-.8-1.3c-1.4,0-2.6,1.1-3.5,1.3-.9.2-1.4.1-2.7-.3-.9-.3-2.8-1.1-1.7-1.4,1.4-.4,2.4.2,3.5.2s1.5-1.6-.1-1.9c-3.8-.7-2.2-.9-6-.7-2.7.1-4.4,1.3-4.4,1.3h-4.2Z" fill="#14597d" stroke-width="0"/>
  </g>
  <g>
    <path d="M15.4,48.3c-.7,0-1.3-.1-1.8-.4s-.9-.7-1.2-1.2c-.3-.5-.4-1.1-.4-1.8s0-1,.3-1.4c.2-.4.4-.8.7-1.1s.7-.6,1.1-.7.9-.3,1.4-.3,1,0,1.4.2.7.3,1,.6l-.7,1.2c-.2-.2-.4-.3-.7-.4-.3,0-.6-.1-.9-.1s-.6,0-.9.1c-.3,0-.5.2-.7.4s-.3.4-.4.7c0,.3-.1.6-.1.9s0,.8.3,1.1c.2.3.4.6.7.7.3.2.7.3,1.2.3s.6,0,.9-.1c.3,0,.6-.2.9-.5l.7,1.2c-.3.2-.7.4-1.1.6-.4.1-.9.2-1.5.2Z" fill="#ff7c24" stroke-width="0"/>
    <path d="M19,48.2v-6.7h2.7c.5,0,.9,0,1.3.2s.6.4.8.7c.2.3.3.7.3,1.1s0,.6-.2.9c-.1.3-.3.5-.5.6-.2.2-.5.3-.8.4l1.9,2.8h-1.7l-1.6-2.5h-.7v2.5h-1.4ZM20.4,44.5h1.1c.4,0,.7,0,.9-.2.2-.1.3-.4.3-.7s0-.5-.3-.7c-.2-.2-.5-.2-.8-.2h-1.1v1.8Z" fill="#ff7c24" stroke-width="0"/>
    <path d="M25.5,48.2v-6.7h2.2c.7,0,1.3.1,1.8.4.5.3.9.7,1.2,1.2.3.5.4,1.1.4,1.8s0,.9-.3,1.4c-.2.4-.4.8-.7,1.1-.3.3-.7.5-1.1.7-.4.2-.9.2-1.4.2h-2.2ZM27,46.9h.7c.3,0,.6,0,.9-.1.3,0,.5-.2.7-.4.2-.2.3-.4.4-.6s.1-.5.1-.9,0-.8-.3-1.1-.4-.5-.7-.7-.7-.2-1.1-.2h-.7v4.1Z" fill="#ff7c24" stroke-width="0"/>
    <path d="M32.5,48.2v-6.7h1.4l2.6,4.3h-.6s2.5-4.3,2.5-4.3h1.4v6.7h-1.4v-4.9s.3,0,.3,0l-2.1,3.5h-1l-2.1-3.5h.2c0,0,0,4.8,0,4.8h-1.3Z" fill="#ff7c24" stroke-width="0"/>
    <path d="M44.5,48.3c-.5,0-1,0-1.4-.3-.4-.2-.8-.4-1.1-.7-.3-.3-.6-.7-.7-1.1-.2-.4-.3-.9-.3-1.4s0-1,.3-1.4c.2-.4.4-.8.7-1.1.3-.3.7-.6,1.1-.7.4-.2.9-.3,1.4-.3s1,0,1.4.3c.4.2.8.4,1.1.7.3.3.6.7.8,1.1s.3.9.3,1.4,0,1-.3,1.4c-.2.4-.4.8-.8,1.1-.3.3-.7.6-1.1.7-.4.2-.9.3-1.4.3ZM44.5,47c.3,0,.6,0,.8-.2.3-.1.5-.2.7-.4.2-.2.3-.4.4-.7.1-.3.2-.6.2-.9s0-.8-.3-1.1c-.2-.3-.4-.6-.7-.8-.3-.2-.7-.3-1.1-.3s-.6,0-.8.2-.5.2-.7.4-.3.4-.4.7-.2.6-.2.9,0,.8.3,1.1.4.6.7.8c.3.2.7.3,1.1.3Z" fill="#ff7c24" stroke-width="0"/>
  </g>
</svg>