<?xml version="1.0" encoding="UTF-8"?>
<svg id="_圖層_1" data-name="圖層 1" xmlns="http://www.w3.org/2000/svg" version="1.1" viewBox="0 0 60 60">
  <g>
    <g>
      <path d="M32.2,45.6h-12.7c-.3,0-.6-.2-.6-.6v-26.4c0-.3.2-.6.6-.6h21.7c.3,0,.6.2.6.6v14.1c0,.3-.2.6-.6.6s-.6-.2-.6-.6v-13.6h-20.6v25.3h12.2c.3,0,.6.2.6.6s-.2.6-.6.6Z" fill="#14597d" stroke-width="0"/>
      <path d="M41.1,19.2h-22.2c-2,0-3.7-1.5-3.7-3.3s1.7-3.3,3.7-3.3h21.1c.2,0,.4,0,.5.3.1.2.1.4,0,.5-.7,1.5-.3,3.1,1,4.9.1.2.2.4,0,.6,0,.2-.3.3-.5.3ZM18.9,13.7c-1.4,0-2.6,1-2.6,2.2s1.2,2.2,2.6,2.2h21.1c-.9-1.5-1.2-2.9-.8-4.3h-20.3Z" fill="#14597d" stroke-width="0"/>
      <path d="M19.4,45.6c-2.3,0-4.2-1.9-4.2-4.2V15.9c0-.3.2-.6.6-.6s.6.2.6.6v25.5c0,1.5,1.1,2.8,2.5,3v-25.8c0-.3.2-.6.6-.6s.6.2.6.6v26.4c0,.3-.2.6-.6.6Z" fill="#14597d" stroke-width="0"/>
      <path d="M36.3,26.7h-11.9c-.3,0-.6-.2-.6-.6s.2-.6.6-.6h11.9c.3,0,.6.2.6.6s-.2.6-.6.6Z" fill="#14597d" stroke-width="0"/>
      <path d="M36.3,31.1h-11.9c-.3,0-.6-.2-.6-.6s.2-.6.6-.6h11.9c.3,0,.6.2.6.6s-.2.6-.6.6Z" fill="#14597d" stroke-width="0"/>
      <path d="M35,35.6h-10.7c-.3,0-.6-.2-.6-.6s.2-.6.6-.6h10.7c.3,0,.6.2.6.6s-.2.6-.6.6Z" fill="#14597d" stroke-width="0"/>
    </g>
    <polygon points="16.1 17.4 19.5 19.1 19.5 45 17.1 44.2 15.7 41.7 16.1 17.4" fill="#14597d" stroke-width="0"/>
  </g>
  <path d="M46.8,39.4c-.3-.7-.8-1.4-1.3-2s-1.2-1-2-1.3c-.8-.3-1.6-.5-2.4-.5s-1.6.2-2.4.5c-.7.3-1.4.8-2,1.3s-1,1.2-1.3,2c-.3.8-.5,1.6-.5,2.4s.2,1.6.5,2.4c.3.7.8,1.4,1.3,2s1.2,1,2,1.3c.8.3,1.6.5,2.4.5s1.6-.2,2.4-.5c.7-.3,1.4-.8,2-1.3s1-1.2,1.3-2c.3-.8.5-1.6.5-2.4s-.2-1.6-.5-2.4ZM40.3,45.6l-1.6-1.4-1.6-1.3,1.4-1.6,1.4,1.2,3.4-4.4,1.7,1.3-4.8,6.3Z" fill="#ff7c24" stroke-width="0"/>
</svg>