<?xml version="1.0" encoding="UTF-8"?>
<svg id="_圖層_1" data-name="圖層 1" xmlns="http://www.w3.org/2000/svg" version="1.1" viewBox="0 0 60 60">
  <defs>
    <style>
      .cls-1 {
        fill: none;
        stroke: #14597d;
        stroke-miterlimit: 10;
        stroke-width: .75px;
      }

      .cls-2 {
        fill: #14597d;
      }

      .cls-2, .cls-3 {
        stroke-width: 0px;
      }

      .cls-3 {
        fill: #ff7c24;
      }
    </style>
  </defs>
  <circle class="cls-1" cx="30" cy="30" r="23"/>
  <g id="medal">
    <g>
      <path class="cls-3" d="M32.8,28.77c-.61-.56-1.21-1.13-1.82-1.69v-7.89c0-1.32-2.05-1.32-2.05,0v7.89c-.61.56-1.21,1.13-1.82,1.69-.64.6.36,1.52,1,.92.41-.38.81-.76,1.22-1.14.36.24.87.24,1.23,0,.41.38.81.76,1.22,1.14.64.59,1.65-.32,1-.92Z"/>
      <path class="cls-3" d="M30.98,27.07c.61.57,1.22,1.13,1.82,1.7.64.6-.36,1.52-1,.92-.59-.55-1.18-1.1-1.77-1.64,0,0,0-.31.29-.62.31-.34.65-.36.65-.36Z"/>
      <g>
        <path class="cls-3" d="M27.59,24.61c0-2.01-.48-2.39-.89-2.8-.41-.41-2.06-.84-3.21.31-.59.59-1.13,1.33-1.5,2.01-.38.68-1.53,1.7-2.39,2.9-.85,1.19-.55,1.77-.72,2.56s-.61.99-.96,2.22c-.35,1.23-.03,2.9.14,3.51.17.61-.14,1.26-.14,2.15s-.14,2.69,1.02,3.17c1.16.48,2.59-.2,3.65-.78,1.06-.58,3.55-.38,4.47-.68.92-.31.61-1.7.61-3.07s.44-2.25.61-3.75c.17-1.5-.17-3.03-.34-3.48-.17-.44-.38-2.25-.38-4.26ZM22.51,29.77c0-.31.25-.56.56-.56s.56.25.56.56-.25.56-.56.56-.56-.25-.56-.56ZM23.27,36.44c-.31,0-.56-.25-.56-.56s.25-.56.56-.56.56.25.56.56-.25.56-.56.56ZM24.2,26.29c-.36,0-.66-.29-.66-.66s.29-.66.66-.66.66.29.66.66-.29.66-.66.66ZM25.33,32.59c-.31,0-.56-.25-.56-.56s.25-.56.56-.56.56.25.56.56-.25.56-.56.56ZM25.52,27.99c-.42,0-.75-.34-.75-.75s.34-.75.75-.75.75.34.75.75-.34.75-.75.75Z"/>
        <path class="cls-3" d="M41.83,35.31c.17-.61.49-2.28.14-3.51-.35-1.23-.79-1.43-.96-2.22-.17-.78.14-1.36-.72-2.56s-2.01-2.22-2.39-2.9c-.38-.68-.91-1.42-1.5-2.01-1.14-1.14-2.8-.72-3.21-.31s-.89.78-.89,2.8-.2,3.82-.38,4.26c-.17.44-.51,1.98-.34,3.48.17,1.5.61,2.39.61,3.75s-.31,2.76.61,3.07c.92.31,3.41.1,4.47.68,1.06.58,2.49,1.26,3.65.78,1.16-.48,1.02-2.28,1.02-3.17s-.31-1.53-.14-2.15ZM36.89,28.14c.41-.09.74-.38.72-.71-.01-.17.2-.26.35-.33.21-.09.56-.11.79-.09.13.01.12.06.16-.05,0-.02.02-.04.03-.05.11.2.09.38.04.57-.1,0-.21-.02-.33-.09-.09-.01-.18-.02-.27-.02-.59-.03-.39.09-.44.26-.04.12-.09.2-.19.3-.19.17-.55.29-.83.31-.04,0-.05-.02-.05-.04,0-.02.01-.04.04-.04ZM32.58,27.23s.01,0,.02,0c.11-.1.21-.25.38-.31.22-.07.52-.03.72-.09-.04-.05-.04-.11,0-.17.04-.06.12-.1.2-.13,0-.06-.03-.14-.06-.23-.1-.25-.19-.52-.09-.77.1-.26.33-.19.3-.6-.02-.25-.28-.48-.28-.74,0-.31.01-.58.13-.88.09-.23.37-.36.64-.31.06.01.06.08,0,.09-.8.17-.12,1.57.08,1.99.04.09.03.26-.04.35-.06.07-.13.11-.23.15-.34.21-.04.6.06.85.01.03.03.07.04.11.27.12.42.26.66,0,.09-.1.22-.15.37-.18.34-.06.66.58.91.27.17-.21.23-.53.27-.77,0-.04.08-.05.09,0,.05.38.13,1.12-.56,1.18-.13.01-.31-.06-.41-.12-.12-.07-.23-.26-.37-.1-.07.08-.15.14-.24.2-.2.14-.52.03-.76-.06-.05.11-.15.19-.31.22-.29.06-.52.07-.74.13.38.07.76.17,1.12.32.67.27.66.78,1.55.66.49-.07.71.3.86.58.26.46.41.79,1.16.64.27-.05.43,0,.67.06.04,0,.06.04.05.07,0,.02-.01.04-.02.05-.02.04-.08.04-.1,0,.02.09-1.31.35-1.48.32-.48-.1-.62-.39-.79-.71-.31-.58-.71-.35-1.2-.48.12.18.24.35.3.53.11.36-.47.67.2.98.8.37.79.65.56,1.35,0,.01-.02,0-.02,0-.05-.31.09-.83-.36-1.03-.15-.07-.33-.11-.49-.17-.33-.12-.45-.37-.49-.62-.04-.19.26-.37.2-.55-.12-.39-.5-.62-.51-1.03,0,0,0-.01,0-.02-.26-.32-.72-.49-1.2-.58,0,0-.02,0-.02-.01-.18-.1-.49-.11-.71-.08-.09,0-.09-.15-.06-.35ZM34.71,32.95c0,.25-.04.3.24.42.16.07.22.12.29.25.11.21.11.4.3.59.09.09,0,.15-.06.22-.03.04-.11,0-.08-.03.05-.08-.27-.4-.32-.51-.12-.28-.48-.19-.68-.36-.12-.1-.08-.32-.08-.44,0-.15,0-.3,0-.45,0-.18-.13-.38-.32-.49-.14.01-.27,0-.4-.03-.21-.2-.4-.4-.29-.49.05-.04.08-.08.12-.12.01.07.03.14.03.21.14-.01.26,0,.39.03.24-.05.49-.08.72-.13.22-.05.56.02.67.19.11.17.25.64.66.49.19-.07.33-.22.52-.29.22-.08.32-.09.48.04.04.03-.01.08-.06.06-.19-.08-.71.45-.89.53-.23.11-.47.06-.7-.02-.32-.12-.29-.64-.73-.58.3.22.2.63.19.9ZM32.06,30.31s.01-.04.04-.04c.41-.09.74-.38.72-.71-.01-.17.2-.26.35-.33.21-.09.56-.11.79-.09.13.01.12.06.16-.05,0-.02.02-.04.03-.05.11.2.09.38.04.57-.1,0-.21-.02-.33-.09-.09-.01-.18-.02-.27-.02-.59-.03-.39.09-.44.26-.04.12-.09.2-.19.3-.19.17-.55.29-.83.31-.04,0-.05-.02-.05-.04ZM32.26,33.58s-.09-.03-.05-.05c.08-.05.15-.11.23-.16.05-.03.16-.05.21-.08.23-.17.38-.2.34-.47-.06-.39.52-.16.77-.19,0,.09,0,.18-.03.28-.12,0-.23-.04-.34-.06-.04,0-.06,0-.07,0,0,.04,0,.07,0,.11-.02.43-.66.46-1.06.6ZM40.99,30.98c-.59-.43-1.11.86-1.27,1.25-.04.08-.15.17-.26.18-.08,0-.16-.02-.24-.06-.35-.1-.42.33-.53.55-.01.03-.03.06-.05.09.08.25.08.43.4.44.12,0,.23.06.34.14.24.19,0,.79.37.77.24-.01.49-.16.67-.29.03-.02.08.03.05.06-.22.26-.66.76-1.11.34-.09-.08-.15-.25-.16-.35-.02-.12.03-.31-.16-.3-.09,0-.18-.02-.27-.04-.21-.05-.33-.32-.42-.54-.1.03-.22.02-.33-.07-.21-.16-.36-.3-.53-.41.18.3.35.6.46.93.22.61-.12.91.49,1.42.34.29.23.65.13.92-.15.45-.27.75.27,1.15.2.15.26.28.36.48.02.03.01.06-.01.07-.01,0-.03.01-.05.02-.04.01-.07-.03-.06-.06-.05.07-1.02-.65-1.1-.79-.22-.38-.12-.64,0-.95.2-.55-.2-.68-.41-1.08-.05.18-.09.37-.17.51-.17.29-.73.09-.53.73.24.75.05.91-.56,1.18-.01,0-.02-.01-.01-.02.18-.22.61-.44.47-.86-.05-.14-.12-.29-.18-.43-.1-.25-.04-.46.07-.62-.28.17-.67.14-.99.07-.43-.08-.65-.02-1.03.04-.16.03-.45.06-.61-.01-.19-.08-.32-.2-.46-.3-.02.06-.05.12-.07.17-.17.4.61.15.8.26.17.1.34.19.33.38-.02.43-.07.6.53.73.27.06.44.26.58.43.29.35-.14.9-.38,1.19-.03.04-.1,0-.08-.04.06-.11.22-.56.22-.66-.03-.79-.71-.46-1.15-.66-.3-.14-.29-.51-.24-.74.1-.44-.76-.19-1.09-.44-.29-.22.12-.58.13-.81.06-.13.13-.26.2-.39,0,0,0,0,0,0,0,0,0,0,0-.01,0,0,.01-.02.02-.03.05-.03.17.03.21.1.02.02.02.04.03.06.11.02.17.04.29.16.42.46.8.09,1.34.09.37,0,1.14.39,1.32-.08.06-.15.09-.33.26-.43.04-.02.09-.01.12,0,.13.05.1.03.19.11.04.03,0,.08-.06.06-.01,0-.15.4-.25.6.13-.05.33-.03.4-.14.19-.31.11-.7.38-.95,0,0,.01,0,.02,0,.06-.36-.11-.77-.33-1.14,0,0,0-.02,0-.02-.05-.18-.22-.39-.37-.52-.06-.06.04-.15.19-.25,0,0,0,0,.01,0,.13.01.3-.01.43.07.18.1.33.32.49.42.01-.05.05-.1.11-.1.07,0,.14.02.21.05.04-.04.07-.1.11-.18.1-.21.23-.43.46-.52.23-.09.32.1.58-.16.16-.16.15-.47.32-.63.2-.19.39-.34.66-.44.2-.08.46.02.59.24.03.05-.02.08-.06.05Z"/>
        <path class="cls-2" d="M36.8,35.2s-.07.03-.09.06c-.02.02-.03.05-.05.08.02-.01.05-.02.07-.04.02-.02.04-.05.07-.1Z"/>
      </g>
    </g>
  </g>
  <g>
    <polygon class="cls-2" points="9.62 30.91 10.91 30.34 11.05 28.95 11.99 29.99 13.36 29.7 12.65 30.91 13.36 32.13 11.99 31.83 11.05 32.88 10.91 31.48 9.62 30.91"/>
    <polygon class="cls-2" points="11.81 38.52 13.1 37.96 13.24 36.56 14.17 37.61 15.55 37.31 14.84 38.52 15.55 39.74 14.17 39.44 13.24 40.49 13.1 39.09 11.81 38.52"/>
    <polygon class="cls-2" points="11.81 23.3 13.1 22.73 13.24 21.33 14.17 22.38 15.55 22.08 14.84 23.3 15.55 24.51 14.17 24.22 13.24 25.26 13.1 23.87 11.81 23.3"/>
  </g>
  <g>
    <polygon class="cls-2" points="50.38 30.91 49.09 31.48 48.95 32.88 48.01 31.83 46.64 32.13 47.35 30.91 46.64 29.7 48.01 29.99 48.95 28.95 49.09 30.34 50.38 30.91"/>
    <polygon class="cls-2" points="48.19 23.3 46.9 23.87 46.76 25.26 45.83 24.22 44.45 24.51 45.16 23.3 44.45 22.08 45.83 22.38 46.76 21.33 46.9 22.73 48.19 23.3"/>
    <polygon class="cls-2" points="48.19 38.52 46.9 39.09 46.76 40.49 45.83 39.44 44.45 39.74 45.16 38.52 44.45 37.31 45.83 37.61 46.76 36.56 46.9 37.96 48.19 38.52"/>
  </g>
  <g>
    <g>
      <path class="cls-2" d="M18.61,45.94l.65.34s.03.04.02.06c-.01.02-.04.03-.06.02,0,0,0,0,0,0l-.6-.42Z"/>
      <path class="cls-2" d="M20.61,46.94c.46.18.93.37,1.38.57h.01c.09.04.13.15.09.24s-.14.13-.23.09c0,0,0,0,0,0-.46-.22-.91-.45-1.35-.68-.06-.03-.08-.1-.05-.16.03-.05.09-.08.15-.06h0Z"/>
      <path class="cls-2" d="M23.4,47.98l1.44.38h.02c.14.04.22.18.19.32-.04.14-.18.22-.32.19,0,0,0,0-.01,0l-1.45-.47c-.11-.04-.18-.16-.14-.27.04-.11.15-.17.26-.14h.02Z"/>
      <path class="cls-2" d="M26.3,48.66l1.47.2h.02c.16.02.27.17.25.33-.02.16-.17.27-.33.25,0,0,0,0,0,0l-1.51-.23c-.15-.02-.26-.16-.23-.32.02-.15.16-.25.31-.23h.02Z"/>
      <path class="cls-2" d="M29.25,48.94h1.48s0,0,0,0c.17,0,.31.14.31.31,0,.16-.13.3-.29.31-.51.02-1.02.02-1.53,0-.17,0-.3-.15-.29-.32,0-.16.14-.29.31-.29h0Z"/>
      <path class="cls-2" d="M32.22,48.85l1.47-.19h.02c.15-.02.29.08.31.24.02.15-.08.29-.23.31l-1.51.23c-.16.02-.31-.09-.33-.25-.02-.16.09-.31.25-.33,0,0,0,0,0,0h.02Z"/>
      <path class="cls-2" d="M35.14,48.36l1.44-.38h.02c.12-.03.24.04.27.15.03.11-.04.23-.14.26l-1.45.47c-.14.04-.29-.03-.33-.17-.04-.14.03-.29.17-.33,0,0,0,0,.01,0h.02Z"/>
      <path class="cls-2" d="M38,47.51c.46-.2.92-.38,1.39-.57h0c.06-.03.13,0,.15.06.02.06,0,.12-.06.15-.45.23-.9.46-1.36.68-.09.04-.19,0-.24-.08-.04-.09,0-.19.08-.24,0,0,0,0,0,0h.01Z"/>
      <path class="cls-2" d="M40.74,46.28l.65-.34-.6.42s-.05,0-.06-.01c-.01-.02,0-.05.01-.06,0,0,0,0,0,0Z"/>
    </g>
    <g>
      <path class="cls-2" d="M41.39,14.06l-.65-.34s-.03-.04-.02-.06c.01-.02.04-.03.06-.02,0,0,0,0,0,0l.6.42Z"/>
      <path class="cls-2" d="M39.39,13.06c-.46-.18-.93-.37-1.38-.57h-.01c-.09-.04-.13-.15-.09-.24s.14-.13.23-.09c0,0,0,0,0,0,.46.22.91.45,1.35.68.06.03.08.1.05.16-.03.05-.09.08-.15.06h0Z"/>
      <path class="cls-2" d="M36.6,12.02l-1.44-.38h-.02c-.14-.04-.22-.18-.19-.32.04-.14.18-.22.32-.19,0,0,0,0,.01,0l1.45.47c.11.04.18.16.14.27-.04.11-.15.17-.26.14h-.02Z"/>
      <path class="cls-2" d="M33.7,11.34l-1.47-.2h-.02c-.16-.02-.27-.17-.25-.33.02-.16.17-.27.33-.25,0,0,0,0,0,0l1.51.23c.15.02.26.16.23.32-.02.15-.16.25-.31.23h-.02Z"/>
      <path class="cls-2" d="M30.75,11.06h-1.48s0,0,0,0c-.17,0-.31-.14-.31-.31,0-.16.13-.3.29-.31.51-.02,1.02-.02,1.53,0,.17,0,.3.15.29.32,0,.16-.14.29-.31.29h0Z"/>
      <path class="cls-2" d="M27.78,11.15l-1.47.19h-.02c-.15.02-.29-.08-.31-.24-.02-.15.08-.29.23-.31l1.51-.23c.16-.02.31.09.33.25.02.16-.09.31-.25.33,0,0,0,0,0,0h-.02Z"/>
      <path class="cls-2" d="M24.86,11.64l-1.44.38h-.02c-.12.03-.24-.04-.27-.15-.03-.11.04-.23.14-.26l1.45-.47c.14-.04.29.03.33.17.04.14-.03.29-.17.33,0,0,0,0-.01,0h-.02Z"/>
      <path class="cls-2" d="M22,12.49c-.46.2-.92.38-1.39.57h0c-.06.03-.13,0-.15-.06-.02-.06,0-.12.06-.15.45-.23.9-.46,1.36-.68.09-.04.19,0,.24.08.04.09,0,.19-.08.24,0,0,0,0,0,0h-.01Z"/>
      <path class="cls-2" d="M19.26,13.72l-.65.34.6-.42s.05,0,.06.01c.01.02,0,.05-.01.06,0,0,0,0,0,0Z"/>
    </g>
  </g>
</svg>